<svg version="1.2" xmlns="http://www.w3.org/2000/svg" viewBox="0 0 1200 1200" width="1200" height="1200">
	<title>illust58-3612-ai</title>
	<style>
		.s0 { fill: transparent } 
		.s1 { fill: #13395C } 
	</style>
	<g id="Layer 1">
		<g id="&lt;Group&gt;">
			<g id="&lt;Group&gt;">
				<path id="&lt;Path&gt;" class="s0" d="m15.1 37.8h-15.1v-18.9h15.1z"/>
			</g>
		</g>
		<g id="&lt;Group&gt;">
			<g id="&lt;Group&gt;">
				<path id="&lt;Path&gt;" class="s0" d="m15.1 75.7h-15.1v-18.9h15.1z"/>
			</g>
		</g>
		<g id="&lt;Group&gt;">
			<g id="&lt;Group&gt;">
				<path id="&lt;Path&gt;" class="s0" d="m0.1 94.6h15.1v18.9h-15.1z"/>
			</g>
		</g>
		<g id="&lt;Group&gt;">
			<g id="&lt;Group&gt;">
				<path id="&lt;Path&gt;" class="s0" d="m15.1 151.4h-15v-18.9h15z"/>
			</g>
		</g>
		<g id="&lt;Group&gt;">
			<g id="&lt;Group&gt;">
				<path id="&lt;Path&gt;" class="s0" d="m301 18.9h-15.1v-18.9h15.1z"/>
			</g>
		</g>
		<g id="&lt;Group&gt;">
			<g id="&lt;Group&gt;">
				<path id="&lt;Path&gt;" class="s0" d="m301 56.8h-15.1v-19h13.4v-17.6h15.1v19h-13.4z"/>
			</g>
		</g>
		<g id="&lt;Group&gt;">
			<g id="&lt;Group&gt;">
				<path id="&lt;Path&gt;" class="s0" d="m150.3 56.8h-14.7v-19h14.7v-18.9h-14.7v-18.9h15.1v18.9h14.7v18.9h-14.7v19h14.7v18.9h-14.6v18.9h14.7v18.9h-14.8v19h14.7v18.9h-14.2v16.2h14.7v18.9h-14.7v19h-15.1v-19h14.7v-18.9h-14.7v-18.9h14.3v-16.2h-14.7v-19h14.7v-18.9h-14.7v-18.9h14.6z"/>
			</g>
		</g>
		<g id="&lt;Group&gt;">
			<g id="&lt;Group&gt;">
				<path id="&lt;Path&gt;" class="s0" d="m301.1 94.6h-15.1v-18.9h13.3v-17.6h15v18.9h-13.2z"/>
			</g>
		</g>
		<g id="&lt;Group&gt;">
			<g id="&lt;Group&gt;">
				<path id="&lt;Path&gt;" class="s0" d="m0.5 167.6h15.1v18.9h-15.1z"/>
			</g>
		</g>
		<g id="&lt;Group&gt;">
			<g id="&lt;Group&gt;">
				<path id="&lt;Path&gt;" class="s0" d="m15.6 224.4h-15.1v-18.9h15.1z"/>
			</g>
		</g>
		<g id="&lt;Group&gt;">
			<g id="&lt;Group&gt;">
				<path id="&lt;Path&gt;" class="s0" d="m0.6 243.3h15.1v18.9h-15.1z"/>
			</g>
		</g>
		<g id="&lt;Group&gt;">
			<g id="&lt;Group&gt;">
				<path id="&lt;Path&gt;" class="s0" d="m15.6 300.1h-15.1v-18.9h15.1z"/>
			</g>
		</g>
		<g id="&lt;Group&gt;">
			<g id="&lt;Group&gt;">
				<path id="&lt;Path&gt;" class="s0" d="m301.5 167.6h-15.1v-18.9h12.9v-14.9h15.1v18.9h-12.9z"/>
			</g>
		</g>
		<g id="&lt;Group&gt;">
			<g id="&lt;Group&gt;">
				<path id="&lt;Path&gt;" class="s0" d="m301.6 243.3h-15.1v-18.9h13.2v-17.6h15.1v18.9h-13.2z"/>
			</g>
		</g>
		<g id="&lt;Group&gt;">
			<g id="&lt;Group&gt;">
				<path id="&lt;Path&gt;" class="s0" d="m299.4 95.9h15v19h-13.4v17.6h-15v-19h13.4z"/>
			</g>
		</g>
		<g id="&lt;Group&gt;">
			<g id="&lt;Group&gt;">
				<path id="&lt;Path&gt;" class="s0" d="m600.3 20.2h-15.1v-18.9h15.1z"/>
			</g>
		</g>
		<g id="&lt;Group&gt;">
			<g id="&lt;Group&gt;">
				<path id="&lt;Path&gt;" class="s0" d="m600.2 58.1h-15v-18.9h14.8v-18.4h15.1v18.9h-14.9z"/>
			</g>
		</g>
		<g id="&lt;Group&gt;">
			<g id="&lt;Group&gt;">
				<path id="&lt;Path&gt;" class="s0" d="m449.6 58.1h-14.7v-18.9h14.7v-19h-14.7v-18.9h15.1v18.9h14.7v19h-14.8v18.9h14.7v18.9h-14.6v18.9h14.7v19h-14.7v18.9h14.7v18.9h-14.2v16.2h14.7v19h-14.8v18.9h14.7v18.9h-14.6v18.9h14.7v18.9h-14.7v19h14.7v18.9h-14.7v18.3h14.7v18.9h-14.7v19h14.7v18.9h-14.6v18.9h14.7v18.9h-14.7v19h14.7v18.9h-14.3v16.2h14.7v18.9h-14.7v19h14.7v18.9h-14.6v18.9h14.7v18.9h-14.8v19h14.7v18.9h-14.4v17.3h14.7v18.9h-14.8v18.9h14.7v19h-14.6v18.9h14.7v18.9h-14.7v18.9h14.7v19h-14.2v16.2h14.7v18.9h-14.8v18.9h-15.1v-18.9h14.8v-18.9h-14.7v-18.9h14.2v-16.3h-14.7v-18.9h14.8v-18.9h-14.7v-18.9h14.6v-19h-14.7v-18.9h14.7v-18.9h-14.7v-18.9h14.5v-17.3h-14.7v-19h14.7v-18.9h-14.7v-18.9h14.6v-18.9h-14.7v-19h14.7v-18.9h-14.7v-18.9h14.3v-16.2h-14.7v-19h14.7v-18.9h-14.7v-18.9h14.6v-18.9h-14.7v-19h14.8v-18.9h-14.7v-18.9h14.6v-18.3h-14.7v-19h14.8v-18.9h-14.8v-18.9h14.6v-18.9h-14.7v-18.9h14.8v-19h-14.7v-18.9h14.2v-16.2h-14.7v-18.9h14.8v-19h-14.7v-18.9h14.6z"/>
			</g>
		</g>
		<g id="&lt;Group&gt;">
			<g id="&lt;Group&gt;">
				<path id="&lt;Path&gt;" class="s0" d="m600.3 95.9h-15v-18.9h14.7v-18.4h15.1v18.9h-14.8z"/>
			</g>
		</g>
		<g id="&lt;Group&gt;">
			<g id="&lt;Group&gt;">
				<path id="&lt;Path&gt;" class="s0" d="m299.8 168.9h15.1v19h-13.4v17.6h-15.1v-19h13.4z"/>
			</g>
		</g>
		<g id="&lt;Group&gt;">
			<g id="&lt;Group&gt;">
				<path id="&lt;Path&gt;" class="s0" d="m299.9 244.6h15v18.9h-13.4v17.7h-15.1v-19h13.5z"/>
			</g>
		</g>
		<g id="&lt;Group&gt;">
			<g id="&lt;Group&gt;">
				<path id="&lt;Path&gt;" class="s0" d="m600.8 168.9h-15.1v-18.9h14.3v-15.7h15.1v18.9h-14.3z"/>
			</g>
		</g>
		<g id="&lt;Group&gt;">
			<g id="&lt;Group&gt;">
				<path id="&lt;Path&gt;" class="s0" d="m600.8 244.6h-15.1v-18.9h14.8v-18.4h15v18.9h-14.7z"/>
			</g>
		</g>
		<g id="&lt;Group&gt;">
			<g id="&lt;Group&gt;">
				<path id="&lt;Path&gt;" class="s0" d="m0.6 318.4h15.1v18.9h-15.1z"/>
			</g>
		</g>
		<g id="&lt;Group&gt;">
			<g id="&lt;Group&gt;">
				<path id="&lt;Path&gt;" class="s0" d="m15.6 375.2h-15v-18.9h15z"/>
			</g>
		</g>
		<g id="&lt;Group&gt;">
			<g id="&lt;Group&gt;">
				<path id="&lt;Path&gt;" class="s0" d="m0.7 394.1h15v18.9h-15z"/>
			</g>
		</g>
		<g id="&lt;Group&gt;">
			<g id="&lt;Group&gt;">
				<path id="&lt;Path&gt;" class="s0" d="m15.7 450.9h-15.1v-18.9h15.1z"/>
			</g>
		</g>
		<g id="&lt;Group&gt;">
			<g id="&lt;Group&gt;">
				<path id="&lt;Path&gt;" class="s0" d="m301.6 318.4h-15.1v-18.9h13.3v-17h15.1v18.9h-13.3z"/>
			</g>
		</g>
		<g id="&lt;Group&gt;">
			<g id="&lt;Group&gt;">
				<path id="&lt;Path&gt;" class="s0" d="m301.6 394.1h-15v-18.9h13.2v-17.6h15.1v18.9h-13.3z"/>
			</g>
		</g>
		<g id="&lt;Group&gt;">
			<g id="&lt;Group&gt;">
				<path id="&lt;Path&gt;" class="s0" d="m1.1 467.1h15.1v18.9h-15.1z"/>
			</g>
		</g>
		<g id="&lt;Group&gt;">
			<g id="&lt;Group&gt;">
				<path id="&lt;Path&gt;" class="s0" d="m16.1 523.9h-15.1v-18.9h15.1z"/>
			</g>
		</g>
		<g id="&lt;Group&gt;">
			<g id="&lt;Group&gt;">
				<path id="&lt;Path&gt;" class="s0" d="m1.2 542.8h15v18.9h-15z"/>
			</g>
		</g>
		<g id="&lt;Group&gt;">
			<g id="&lt;Group&gt;">
				<path id="&lt;Path&gt;" class="s0" d="m16.2 599.6h-15.1v-19h15.1z"/>
			</g>
		</g>
		<g id="&lt;Group&gt;">
			<g id="&lt;Group&gt;">
				<path id="&lt;Path&gt;" class="s0" d="m302.1 467.1h-15.1v-18.9h12.9v-14.9h15.1v18.9h-12.9z"/>
			</g>
		</g>
		<g id="&lt;Group&gt;">
			<g id="&lt;Group&gt;">
				<path id="&lt;Path&gt;" class="s0" d="m302.1 542.8h-15v-18.9h13.2v-17.6h15.1v18.9h-13.3z"/>
			</g>
		</g>
		<g id="&lt;Group&gt;">
			<g id="&lt;Group&gt;">
				<path id="&lt;Path&gt;" class="s0" d="m299.9 319.7h15v18.9h-13.4v17.7h-15v-19h13.4z"/>
			</g>
		</g>
		<g id="&lt;Group&gt;">
			<g id="&lt;Group&gt;">
				<path id="&lt;Path&gt;" class="s0" d="m299.9 395.4h15.1v18.9h-13.4v17.7h-15.1v-19h13.4z"/>
			</g>
		</g>
		<g id="&lt;Group&gt;">
			<g id="&lt;Group&gt;">
				<path id="&lt;Path&gt;" class="s0" d="m600.8 319.7h-15v-18.9h14.7v-17.8h15.1v18.9h-14.8z"/>
			</g>
		</g>
		<g id="&lt;Group&gt;">
			<g id="&lt;Group&gt;">
				<path id="&lt;Path&gt;" class="s0" d="m600.9 395.4h-15.1v-18.9h14.7v-18.4h15.1v18.9h-14.7z"/>
			</g>
		</g>
		<g id="&lt;Group&gt;">
			<g id="&lt;Group&gt;">
				<path id="&lt;Path&gt;" class="s0" d="m300.3 468.4h15.1v18.9h-13.4v17.7h-15.1v-19h13.4z"/>
			</g>
		</g>
		<g id="&lt;Group&gt;">
			<g id="&lt;Group&gt;">
				<path id="&lt;Path&gt;" class="s0" d="m300.4 544.1h15.1v18.9h-13.4v17.6h-15.1v-18.9h13.4z"/>
			</g>
		</g>
		<g id="&lt;Group&gt;">
			<g id="&lt;Group&gt;">
				<path id="&lt;Path&gt;" class="s0" d="m601.3 468.4h-15.1v-18.9h14.4v-15.7h15.1v18.9h-14.4z"/>
			</g>
		</g>
		<g id="&lt;Group&gt;">
			<g id="&lt;Group&gt;">
				<path id="&lt;Path&gt;" class="s0" d="m601.4 544.1h-15.1v-18.9h14.7v-18.4h15.1v18.9h-14.7z"/>
			</g>
		</g>
		<g id="&lt;Group&gt;">
			<g id="&lt;Group&gt;">
				<path id="&lt;Path&gt;" class="s0" d="m600.1 96.5h15.1v18.9h-14.9v18.4h-15.1v-18.9h14.9z"/>
			</g>
		</g>
		<g id="&lt;Group&gt;">
			<g id="&lt;Group&gt;">
				<path id="&lt;Path&gt;" class="s0" d="m901 20.8h-15.1v-19h15.1z"/>
			</g>
		</g>
		<g id="&lt;Group&gt;">
			<g id="&lt;Group&gt;">
				<path id="&lt;Path&gt;" class="s0" d="m900.9 58.6h-15v-18.9h13.4v-17.6h15.1v18.9h-13.5z"/>
			</g>
		</g>
		<g id="&lt;Group&gt;">
			<g id="&lt;Group&gt;">
				<path id="&lt;Path&gt;" class="s0" d="m750.3 58.6h-14.7v-18.9h14.7v-18.9h-14.7v-19h15.1v19h14.7v18.9h-14.8v18.9h14.8v18.9h-14.6v19h14.7v18.9h-14.8v18.9h14.7v18.9h-14.2v16.2h14.7v19h-14.8v18.9h-15v-18.9h14.7v-19h-14.7v-18.9h14.2v-16.2h-14.7v-18.9h14.8v-18.9h-14.7v-19h14.6z"/>
			</g>
		</g>
		<g id="&lt;Group&gt;">
			<g id="&lt;Group&gt;">
				<path id="&lt;Path&gt;" class="s0" d="m901.1 96.5h-15.1v-19h13.2v-17.6h15.1v18.9h-13.2z"/>
			</g>
		</g>
		<g id="&lt;Group&gt;">
			<g id="&lt;Group&gt;">
				<path id="&lt;Path&gt;" class="s0" d="m600.5 169.4h15.1v19h-14.9v18.4h-15.1v-18.9h14.9z"/>
			</g>
		</g>
		<g id="&lt;Group&gt;">
			<g id="&lt;Group&gt;">
				<path id="&lt;Path&gt;" class="s0" d="m600.6 245.1h15v19h-14.8v18.4h-15.1v-19h14.9z"/>
			</g>
		</g>
		<g id="&lt;Group&gt;">
			<g id="&lt;Group&gt;">
				<path id="&lt;Path&gt;" class="s0" d="m901.5 169.4h-15.1v-18.9h12.9v-14.9h15.1v18.9h-12.9z"/>
			</g>
		</g>
		<g id="&lt;Group&gt;">
			<g id="&lt;Group&gt;">
				<path id="&lt;Path&gt;" class="s0" d="m901.5 245.1h-15v-18.9h13.2v-17.6h15.1v18.9h-13.3z"/>
			</g>
		</g>
		<g id="&lt;Group&gt;">
			<g id="&lt;Group&gt;">
				<path id="&lt;Path&gt;" class="s0" d="m899.3 97.8h15.1v18.9h-13.4v17.6h-15.1v-18.9h13.4z"/>
			</g>
		</g>
		<g id="&lt;Group&gt;">
			<g id="&lt;Group&gt;">
				<path id="&lt;Path&gt;" class="s0" d="m1200.3 22.1h-15.1v-19h15.1z"/>
			</g>
		</g>
		<g id="&lt;Group&gt;">
			<g id="&lt;Group&gt;">
				<path id="&lt;Path&gt;" class="s0" d="m1200.2 59.9h-15.1v-18.9h15.1z"/>
			</g>
		</g>
		<g id="&lt;Group&gt;">
			<g id="&lt;Group&gt;">
				<path id="&lt;Path&gt;" class="s0" d="m1049.5 59.9h-14.7v-18.9h14.8v-18.9h-14.7v-19h15v19h14.8v18.9h-14.8v18.9h14.7v18.9h-14.6v19h14.7v18.9h-14.7v18.9h14.7v18.9h-14.3v16.3h14.7v18.9h-14.7v18.9h-15.1v-18.9h14.8v-18.9h-14.7v-19h14.2v-16.2h-14.7v-18.9h14.7v-18.9h-14.7v-19h14.6z"/>
			</g>
		</g>
		<g id="&lt;Group&gt;">
			<g id="&lt;Group&gt;">
				<path id="&lt;Path&gt;" class="s0" d="m1185.2 78.8h15.1v19h-15.1z"/>
			</g>
		</g>
		<g id="&lt;Group&gt;">
			<g id="&lt;Group&gt;">
				<path id="&lt;Path&gt;" class="s0" d="m1200.3 135.6h-15.1v-18.9h15.1z"/>
			</g>
		</g>
		<g id="&lt;Group&gt;">
			<g id="&lt;Group&gt;">
				<path id="&lt;Path&gt;" class="s0" d="m899.8 170.8h15v18.9h-13.4v17.6h-15v-18.9h13.4z"/>
			</g>
		</g>
		<g id="&lt;Group&gt;">
			<g id="&lt;Group&gt;">
				<path id="&lt;Path&gt;" class="s0" d="m899.8 246.5h15.1v18.9h-13.4v17.6h-15.1v-18.9h13.4z"/>
			</g>
		</g>
		<g id="&lt;Group&gt;">
			<g id="&lt;Group&gt;">
				<path id="&lt;Path&gt;" class="s0" d="m1185.7 151.8h15v19h-15z"/>
			</g>
		</g>
		<g id="&lt;Group&gt;">
			<g id="&lt;Group&gt;">
				<path id="&lt;Path&gt;" class="s0" d="m1200.7 208.6h-15.1v-18.9h15.1z"/>
			</g>
		</g>
		<g id="&lt;Group&gt;">
			<g id="&lt;Group&gt;">
				<path id="&lt;Path&gt;" class="s0" d="m1185.7 227.5h15.1v19h-15.1z"/>
			</g>
		</g>
		<g id="&lt;Group&gt;">
			<g id="&lt;Group&gt;">
				<path id="&lt;Path&gt;" class="s0" d="m1200.8 284.3h-15.1v-18.9h15.1z"/>
			</g>
		</g>
		<g id="&lt;Group&gt;">
			<g id="&lt;Group&gt;">
				<path id="&lt;Path&gt;" class="s0" d="m600.6 320.2h15.1v19h-14.9v18.4h-15.1v-19h14.9z"/>
			</g>
		</g>
		<g id="&lt;Group&gt;">
			<g id="&lt;Group&gt;">
				<path id="&lt;Path&gt;" class="s0" d="m600.6 395.9h15.1v19h-14.8v18.4h-15.1v-19h14.8z"/>
			</g>
		</g>
		<g id="&lt;Group&gt;">
			<g id="&lt;Group&gt;">
				<path id="&lt;Path&gt;" class="s0" d="m901.6 320.2h-15.1v-18.9h13.3v-17h15.1v18.9h-13.3z"/>
			</g>
		</g>
		<g id="&lt;Group&gt;">
			<g id="&lt;Group&gt;">
				<path id="&lt;Path&gt;" class="s0" d="m901.6 395.9h-15.1v-18.9h13.3v-17.6h15.1v18.9h-13.3z"/>
			</g>
		</g>
		<g id="&lt;Group&gt;">
			<g id="&lt;Group&gt;">
				<path id="&lt;Path&gt;" class="s0" d="m601.1 468.9h15v19h-14.8v18.4h-15.1v-19h14.9z"/>
			</g>
		</g>
		<g id="&lt;Group&gt;">
			<g id="&lt;Group&gt;">
				<path id="&lt;Path&gt;" class="s0" d="m601.1 544.6h15.1v19h-14.9v18.4h-15v-19h14.8z"/>
			</g>
		</g>
		<g id="&lt;Group&gt;">
			<g id="&lt;Group&gt;">
				<path id="&lt;Path&gt;" class="s0" d="m902 468.9h-15v-18.9h12.9v-14.9h15v18.9h-12.9z"/>
			</g>
		</g>
		<g id="&lt;Group&gt;">
			<g id="&lt;Group&gt;">
				<path id="&lt;Path&gt;" class="s0" d="m902.1 544.6h-15.1v-18.9h13.3v-17.6h15.1v18.9h-13.3z"/>
			</g>
		</g>
		<g id="&lt;Group&gt;">
			<g id="&lt;Group&gt;">
				<path id="&lt;Path&gt;" class="s0" d="m899.8 321.5h15.1v19h-13.4v17.6h-15.1v-18.9h13.4z"/>
			</g>
		</g>
		<g id="&lt;Group&gt;">
			<g id="&lt;Group&gt;">
				<path id="&lt;Path&gt;" class="s0" d="m899.9 397.2h15.1v19h-13.4v17.6h-15.1v-18.9h13.4z"/>
			</g>
		</g>
		<g id="&lt;Group&gt;">
			<g id="&lt;Group&gt;">
				<path id="&lt;Path&gt;" class="s0" d="m1185.7 302.6h15.1v18.9h-15.1z"/>
			</g>
		</g>
		<g id="&lt;Group&gt;">
			<g id="&lt;Group&gt;">
				<path id="&lt;Path&gt;" class="s0" d="m1200.8 359.4h-15.1v-18.9h15.1z"/>
			</g>
		</g>
		<g id="&lt;Group&gt;">
			<g id="&lt;Group&gt;">
				<path id="&lt;Path&gt;" class="s0" d="m1185.8 378.3h15.1v18.9h-15.1z"/>
			</g>
		</g>
		<g id="&lt;Group&gt;">
			<g id="&lt;Group&gt;">
				<path id="&lt;Path&gt;" class="s0" d="m1200.8 435.1h-15v-18.9h15z"/>
			</g>
		</g>
		<g id="&lt;Group&gt;">
			<g id="&lt;Group&gt;">
				<path id="&lt;Path&gt;" class="s0" d="m900.3 470.2h15.1v19h-13.4v17.6h-15.1v-18.9h13.4z"/>
			</g>
		</g>
		<g id="&lt;Group&gt;">
			<g id="&lt;Group&gt;">
				<path id="&lt;Path&gt;" class="s0" d="m900.4 545.9h15.1v19h-13.4v17.6h-15.1v-18.9h13.4z"/>
			</g>
		</g>
		<g id="&lt;Group&gt;">
			<g id="&lt;Group&gt;">
				<path id="&lt;Path&gt;" class="s0" d="m1186.2 451.3h15.1v18.9h-15.1z"/>
			</g>
		</g>
		<g id="&lt;Group&gt;">
			<g id="&lt;Group&gt;">
				<path id="&lt;Path&gt;" class="s0" d="m1201.3 508.1h-15.1v-18.9h15.1z"/>
			</g>
		</g>
		<g id="&lt;Group&gt;">
			<g id="&lt;Group&gt;">
				<path id="&lt;Path&gt;" class="s0" d="m1186.3 527h15.1v18.9h-15.1z"/>
			</g>
		</g>
		<g id="&lt;Group&gt;">
			<g id="&lt;Group&gt;">
				<path id="&lt;Path&gt;" class="s0" d="m1201.3 583.8h-15.1v-18.9h15.1z"/>
			</g>
		</g>
		<g id="&lt;Group&gt;">
			<g id="&lt;Group&gt;">
				<path id="&lt;Path&gt;" class="s0" d="m1.3 616.9h15.1v18.9h-15.1z"/>
			</g>
		</g>
		<g id="&lt;Group&gt;">
			<g id="&lt;Group&gt;">
				<path id="&lt;Path&gt;" class="s0" d="m16.4 673.7h-15.1v-19h15.1z"/>
			</g>
		</g>
		<g id="&lt;Group&gt;">
			<g id="&lt;Group&gt;">
				<path id="&lt;Path&gt;" class="s0" d="m1.4 692.6h15.1v18.9h-15.1z"/>
			</g>
		</g>
		<g id="&lt;Group&gt;">
			<g id="&lt;Group&gt;">
				<path id="&lt;Path&gt;" class="s0" d="m16.4 749.3h-15v-18.9h15z"/>
			</g>
		</g>
		<g id="&lt;Group&gt;">
			<g id="&lt;Group&gt;">
				<path id="&lt;Path&gt;" class="s0" d="m302.3 616.9h-15.1v-18.9h13.2v-16h15v18.9h-13.1z"/>
			</g>
		</g>
		<g id="&lt;Group&gt;">
			<g id="&lt;Group&gt;">
				<path id="&lt;Path&gt;" class="s0" d="m302.4 692.6h-15.1v-18.9h13.3v-17.7h15v19h-13.2z"/>
			</g>
		</g>
		<g id="&lt;Group&gt;">
			<g id="&lt;Group&gt;">
				<path id="&lt;Path&gt;" class="s0" d="m1.8 765.6h15.1v18.9h-15.1z"/>
			</g>
		</g>
		<g id="&lt;Group&gt;">
			<g id="&lt;Group&gt;">
				<path id="&lt;Path&gt;" class="s0" d="m16.9 822.3h-15.1v-18.9h15.1z"/>
			</g>
		</g>
		<g id="&lt;Group&gt;">
			<g id="&lt;Group&gt;">
				<path id="&lt;Path&gt;" class="s0" d="m1.9 841.3h15.1v18.9h-15.1z"/>
			</g>
		</g>
		<g id="&lt;Group&gt;">
			<g id="&lt;Group&gt;">
				<path id="&lt;Path&gt;" class="s0" d="m16.9 898h-15.1v-18.9h15.1z"/>
			</g>
		</g>
		<g id="&lt;Group&gt;">
			<g id="&lt;Group&gt;">
				<path id="&lt;Path&gt;" class="s0" d="m302.8 765.6h-15.1v-19h12.9v-14.9h15.1v19h-12.9z"/>
			</g>
		</g>
		<g id="&lt;Group&gt;">
			<g id="&lt;Group&gt;">
				<path id="&lt;Path&gt;" class="s0" d="m302.9 841.3h-15.1v-19h13.2v-17.6h15.1v19h-13.2z"/>
			</g>
		</g>
		<g id="&lt;Group&gt;">
			<g id="&lt;Group&gt;">
				<path id="&lt;Path&gt;" class="s0" d="m300.6 618.2h15.1v18.9h-13.4v17.6h-15.1v-18.9h13.4z"/>
			</g>
		</g>
		<g id="&lt;Group&gt;">
			<g id="&lt;Group&gt;">
				<path id="&lt;Path&gt;" class="s0" d="m300.7 693.9h15v18.9h-13.4v17.6h-15v-18.9h13.4z"/>
			</g>
		</g>
		<g id="&lt;Group&gt;">
			<g id="&lt;Group&gt;">
				<path id="&lt;Path&gt;" class="s0" d="m601.6 618.2h-15.1v-18.9h14.6v-16.8h15.1v18.9h-14.6z"/>
			</g>
		</g>
		<g id="&lt;Group&gt;">
			<g id="&lt;Group&gt;">
				<path id="&lt;Path&gt;" class="s0" d="m601.6 693.9h-15v-18.9h14.7v-18.4h15v18.9h-14.7z"/>
			</g>
		</g>
		<g id="&lt;Group&gt;">
			<g id="&lt;Group&gt;">
				<path id="&lt;Path&gt;" class="s0" d="m301.1 766.9h15.1v18.9h-13.4v17.6h-15.1v-18.9h13.4z"/>
			</g>
		</g>
		<g id="&lt;Group&gt;">
			<g id="&lt;Group&gt;">
				<path id="&lt;Path&gt;" class="s0" d="m301.1 842.6h15.1v18.9h-13.4v17.6h-15.1v-18.9h13.4z"/>
			</g>
		</g>
		<g id="&lt;Group&gt;">
			<g id="&lt;Group&gt;">
				<path id="&lt;Path&gt;" class="s0" d="m602.1 766.9h-15.1v-18.9h14.3v-15.7h15.1v18.9h-14.3z"/>
			</g>
		</g>
		<g id="&lt;Group&gt;">
			<g id="&lt;Group&gt;">
				<path id="&lt;Path&gt;" class="s0" d="m602.1 842.6h-15.1v-18.9h14.8v-18.5h15v19h-14.7z"/>
			</g>
		</g>
		<g id="&lt;Group&gt;">
			<g id="&lt;Group&gt;">
				<path id="&lt;Path&gt;" class="s0" d="m1.9 916.4h15.1v18.9h-15.1z"/>
			</g>
		</g>
		<g id="&lt;Group&gt;">
			<g id="&lt;Group&gt;">
				<path id="&lt;Path&gt;" class="s0" d="m16.9 973.1h-15v-18.9h15z"/>
			</g>
		</g>
		<g id="&lt;Group&gt;">
			<g id="&lt;Group&gt;">
				<path id="&lt;Path&gt;" class="s0" d="m2 992.1h15v18.9h-15z"/>
			</g>
		</g>
		<g id="&lt;Group&gt;">
			<g id="&lt;Group&gt;">
				<path id="&lt;Path&gt;" class="s0" d="m17 1048.8h-15.1v-18.9h15.1z"/>
			</g>
		</g>
		<g id="&lt;Group&gt;">
			<g id="&lt;Group&gt;">
				<path id="&lt;Path&gt;" class="s0" d="m302.9 916.4h-15.1v-19h13.3v-17h15.1v19h-13.3z"/>
			</g>
		</g>
		<g id="&lt;Group&gt;">
			<g id="&lt;Group&gt;">
				<path id="&lt;Path&gt;" class="s0" d="m302.9 992.1h-15v-19h13.2v-17.6h15.1v18.9h-13.3z"/>
			</g>
		</g>
		<g id="&lt;Group&gt;">
			<g id="&lt;Group&gt;">
				<path id="&lt;Path&gt;" class="s0" d="m2.4 1065.1h15.1v18.9h-15.1z"/>
			</g>
		</g>
		<g id="&lt;Group&gt;">
			<g id="&lt;Group&gt;">
				<path id="&lt;Path&gt;" class="s0" d="m17.4 1121.8h-15.1v-18.9h15.1z"/>
			</g>
		</g>
		<g id="&lt;Group&gt;">
			<g id="&lt;Group&gt;">
				<path id="&lt;Path&gt;" class="s0" d="m32.7 1140.8h15v18.9h-15.1v18.9h15v18.9h-15v-18.9h-15v-18.9h15v-18.9h-15v-19h14.9v-18.9h-15v-18.9h15v-18.9h-14.9v-19h14.5v-16.2h-15v-18.9h15v-18.9h-15v-19h14.9v-18.9h-15v-18.9h15.1v-18.9h-15v-19h14.9v-18.3h-15v-18.9h15v-18.9h-14.9v-19h14.8v-18.9h-15v-18.9h15.1v-18.9h-15v-19h14.5v-16.2h-15v-18.9h15.1v-18.9h-15v-18.9h14.9v-19h-15v-18.9h15v-18.9h-15v-18.9h14.8v-17.4h-15v-18.9h15v-18.9h-15v-18.9h14.9v-18.9h-15v-19h15v-18.9h-14.9v-18.9h14.5v-16.2h-15v-19h15v-18.9h-15v-18.9h14.9v-18.9h-15v-19h15.1v-18.9h-15v-18.9h14.9v-18.3h-15v-19h15v-18.9h-14.9v-18.9h14.8v-18.9h-15v-19h15.1v-18.9h-15v-18.9h14.5v-16.2h-15v-19h15.1v-18.9h-15v-18.9h14.9v-18.9h-15v-19h15v-18.9h-15v-18.9h15.1v18.9h15v18.9h-15.1v19h15v18.9h-14.8v18.9h14.9v18.9h-15v19h15v18.9h-14.5v16.2h15v18.9h-15.1v19h15v18.9h-14.9v18.9h15v18.9h-15v19h15v18.9h-15v18.3h15v18.9h-15v19h15v18.9h-14.9v18.9h15v18.9h-15v19h15v18.9h-14.6v16.2h15v18.9h-15v19h15v18.9h-14.9v18.9h15v18.9h-15v18.9h14.9v19h-14.7v17.3h15v18.9h-15.1v18.9h15v19h-14.9v18.9h15v18.9h-15v18.9h15v18.9h-14.5v16.3h15v18.9h-15.1v18.9h15v18.9h-14.9v19h15v18.9h-15v18.9h15v18.9h-15v18.4h15v18.9h-15v18.9h15v18.9h-14.9v19h15v18.9h-15v18.9h15v18.9h-14.6v16.3h15v18.9h-15v18.9h15v18.9h-14.9z"/>
			</g>
		</g>
		<g id="&lt;Group&gt;">
			<g id="&lt;Group&gt;">
				<path id="&lt;Path&gt;" class="s0" d="m62.8 1140.8h14.9v18.9h-14.9v18.9h14.8v18.9h-15.1v-18.9h-14.8v-18.9h14.9v-18.9h-14.8v-19h14.7v-18.9h-14.8v-18.9h14.8v-18.9h-14.8v-19h14.4v-16.2h-14.9v-18.9h14.9v-18.9h-14.8v-19h14.7v-18.9h-14.8v-18.9h14.8v-18.9h-14.8v-19h14.8v-18.3h-14.8v-18.9h14.8v-18.9h-14.8v-19h14.7v-18.9h-14.8v-18.9h14.9v-18.9h-14.9v-19h14.4v-16.2h-14.8v-18.9h14.8v-18.9h-14.8v-18.9h14.7v-19h-14.8v-18.9h14.9v-18.9h-14.8v-18.9h14.5v-17.4h-14.8v-18.9h14.9v-18.9h-14.8v-18.9h14.7v-18.9h-14.8v-19h14.8v-18.9h-14.8v-18.9h14.4v-16.2h-14.9v-19h14.9v-18.9h-14.8v-18.9h14.7v-18.9h-14.8v-19h14.8v-18.9h-14.8v-18.9h14.8v-18.3h-14.8v-19h14.8v-18.9h-14.8v-18.9h14.7v-18.9h-14.8v-19h14.9v-18.9h-14.9v-18.9h14.4v-16.2h-14.8v-19h14.8v-18.9h-14.8v-18.9h14.7v-18.9h-14.8v-19h14.9v-18.9h-14.8v-18.9h15v18.9h14.8v18.9h-14.8v19h14.8v18.9h-14.7v18.9h14.8v18.9h-14.8v19h14.8v18.9h-14.4v16.2h14.8v18.9h-14.8v19h14.8v18.9h-14.7v18.9h14.8v18.9h-14.9v19h14.9v18.9h-14.8v18.3h14.8v18.9h-14.8v19h14.8v18.9h-14.7v18.9h14.8v18.9h-14.9v19h14.8v18.9h-14.3v16.2h14.8v18.9h-14.9v19h14.8v18.9h-14.7v18.9h14.9v18.9h-14.9v18.9h14.8v19h-14.6v17.3h14.8v18.9h-14.8v18.9h14.8v19h-14.7v18.9h14.8v18.9h-14.8v18.9h14.8v18.9h-14.4v16.3h14.8v18.9h-14.8v18.9h14.8v18.9h-14.7v19h14.8v18.9h-14.9v18.9h14.8v18.9h-14.7v18.4h14.8v18.9h-14.8v18.9h14.8v18.9h-14.7v19h14.8v18.9h-14.9v18.9h14.8v18.9h-14.3v16.3h14.8v18.9h-14.9v18.9h14.8v18.9h-14.7z"/>
			</g>
		</g>
		<g id="&lt;Group&gt;">
			<g id="&lt;Group&gt;">
				<path id="&lt;Path&gt;" class="s0" d="m92.8 1140.8h15v18.9h-15v18.9h15v18.9h-15.1v-18.9h-15v-18.9h15v-18.9h-15v-19h14.9v-18.9h-15v-18.9h15.1v-18.9h-15v-19h14.5v-16.2h-15v-18.9h15.1v-18.9h-15v-19h14.8v-18.9h-14.9v-18.9h15v-18.9h-15v-19h14.9v-18.3h-15v-18.9h15.1v-18.9h-15v-19h14.9v-18.9h-15v-18.9h15v-18.9h-15v-19h14.5v-16.2h-14.9v-18.9h15v-18.9h-15v-18.9h14.9v-19h-15v-18.9h15v-18.9h-15v-18.9h14.8v-17.4h-15v-18.9h15v-18.9h-15v-18.9h14.9v-18.9h-15v-19h15.1v-18.9h-15v-18.9h14.5v-16.2h-15v-19h15.1v-18.9h-15v-18.9h14.8v-18.9h-14.9v-19h15v-18.9h-15v-18.9h14.9v-18.3h-15v-19h15.1v-18.9h-15v-18.9h14.9v-18.9h-15v-19h15v-18.9h-15v-18.9h14.5v-16.2h-14.9v-19h15v-18.9h-15v-18.9h14.9v-18.9h-15v-19h15v-18.9h-15v-18.9h15.1v18.9h15v18.9h-15v19h15v18.9h-14.9v18.9h15v18.9h-15.1v19h15v18.9h-14.5v16.2h15v18.9h-15.1v19h15v18.9h-14.8v18.9h14.9v18.9h-15v19h15v18.9h-14.9v18.3h15v18.9h-15.1v19h15v18.9h-14.9v18.9h15v18.9h-15v19h15v18.9h-14.5v16.2h14.9v18.9h-15v19h15v18.9h-14.9v18.9h15v18.9h-15v18.9h15v19h-14.8v17.3h15v18.9h-15v18.9h15v19h-14.9v18.9h15v18.9h-15.1v18.9h15v18.9h-14.5v16.3h15v18.9h-15.1v18.9h15v18.9h-14.8v19h14.9v18.9h-15v18.9h15v18.9h-14.9v18.4h15v18.9h-15.1v18.9h15v18.9h-14.9v19h15v18.9h-15v18.9h15v18.9h-14.5v16.3h14.9v18.9h-15v18.9h15v18.9h-14.9z"/>
			</g>
		</g>
		<g id="&lt;Group&gt;">
			<g id="&lt;Group&gt;">
				<path id="&lt;Path&gt;" class="s0" d="m123 1140.8h15v18.9h-15.1v18.9h15v18.9h-15.1v-18.9h-14.9v-18.9h15v-18.9h-15v-19h14.9v-18.9h-15v-18.9h15v-18.9h-15v-19h14.6v-16.2h-15v-18.9h15v-18.9h-15v-19h14.9v-18.9h-15v-18.9h15v-18.9h-15v-19h15v-18.3h-15v-18.9h15v-18.9h-15v-19h14.9v-18.9h-15v-18.9h15.1v-18.9h-15v-19h14.5v-16.2h-15v-18.9h15v-18.9h-14.9v-18.9h14.8v-19h-15v-18.9h15.1v-18.9h-15v-18.9h14.7v-17.4h-14.9v-18.9h15v-18.9h-15v-18.9h14.9v-18.9h-15v-19h15v-18.9h-15v-18.9h14.6v-16.2h-15v-19h15v-18.9h-15v-18.9h14.9v-18.9h-15v-19h15v-18.9h-15v-18.9h15v-18.3h-15v-19h15v-18.9h-15v-18.9h14.9v-18.9h-15v-19h15.1v-18.9h-15v-18.9h14.5v-16.2h-15v-19h15v-18.9h-14.9v-18.9h14.8v-18.9h-15v-19h15.1v-18.9h-15v-18.9h15.1v18.9h15v18.9h-15.1v19h15v18.9h-14.9v18.9h15v18.9h-15v19h15v18.9h-14.6v16.2h15v18.9h-15v19h15v18.9h-14.9v18.9h15v18.9h-15v19h15v18.9h-15v18.3h15v18.9h-15v19h15v18.9h-14.9v18.9h15v18.9h-15.1v19h15v18.9h-14.5v16.2h15v18.9h-15v19h15v18.9h-14.9v18.9h15v18.9h-15.1v18.9h15v19h-14.7v17.3h14.9v18.9h-15v18.9h15v19h-14.9v18.9h15v18.9h-15v18.9h15v18.9h-14.6v16.3h15v18.9h-15v18.9h15v18.9h-14.9v19h15v18.9h-15v18.9h15v18.9h-15v18.4h15v18.9h-15v18.9h15v18.9h-14.9v19h15v18.9h-15.1v18.9h15v18.9h-14.5v16.3h15v18.9h-15v18.9h14.9v18.9h-14.8z"/>
			</g>
		</g>
		<g id="&lt;Group&gt;">
			<g id="&lt;Group&gt;">
				<path id="&lt;Path&gt;" class="s0" d="m153.1 1140.8h14.7v18.9h-14.7v18.9h14.7v18.9h-15.1v-18.9h-14.7v-18.9h14.8v-18.9h-14.8v-19h14.6v-18.9h-14.7v-18.9h14.8v-18.9h-14.7v-19h14.2v-16.2h-14.7v-18.9h14.8v-18.9h-14.7v-19h14.6v-18.9h-14.7v-18.9h14.7v-18.9h-14.7v-19h14.7v-18.3h-14.8v-18.9h14.8v-18.9h-14.7v-19h14.6v-18.9h-14.7v-18.9h14.7v-18.9h-14.7v-19h14.3v-16.2h-14.7v-18.9h14.7v-18.9h-14.7v-18.9h14.6v-19h-14.7v-18.9h14.7v-18.9h-14.7v-18.9h14.5v-17.4h-14.7v-18.9h14.8v-18.9h-14.7v-18.9h14.5v-18.9h-14.7v-19h14.8v-18.9h-14.7v-18.9h14.2v-16.2h-14.7v-19h14.8v-18.9h-14.7v-18.9h14.6v-18.9h-14.7v-19h14.7v-18.9h-14.7v-18.9h14.7v-18.3h-14.8v-19h14.8v-18.9h-14.7v-18.9h14.6v-18.9h15.1v18.9h-14.6v18.9h14.7v18.9h-14.8v19h14.7v18.9h-14.6v18.3h14.7v18.9h-14.8v19h14.7v18.9h-14.6v18.9h14.8v18.9h-14.8v19h14.7v18.9h-14.2v16.2h14.7v18.9h-14.8v19h14.7v18.9h-14.6v18.9h14.7v18.9h-14.7v18.9h14.7v19h-14.5v17.3h14.7v18.9h-14.7v18.9h14.7v19h-14.6v18.9h14.7v18.9h-14.8v18.9h14.7v18.9h-14.2v16.3h14.7v18.9h-14.7v18.9h14.7v18.9h-14.6v19h14.7v18.9h-14.8v18.9h14.7v18.9h-14.6v18.4h14.7v18.9h-14.8v18.9h14.7v18.9h-14.6v19h14.8v18.9h-14.8v18.9h14.7v18.9h-14.2v16.3h14.7v18.9h-14.8v18.9h14.7v18.9h-14.6z"/>
			</g>
		</g>
		<g id="&lt;Group&gt;">
			<g id="&lt;Group&gt;">
				<path id="&lt;Path&gt;" class="s0" d="m2.5 1140.8h15v18.9h-15z"/>
			</g>
		</g>
		<g id="&lt;Group&gt;">
			<g id="&lt;Group&gt;">
				<path id="&lt;Path&gt;" class="s0" d="m2.4 1178.6h15.1v18.9h-15.1z"/>
			</g>
		</g>
		<g id="&lt;Group&gt;">
			<g id="&lt;Group&gt;">
				<path id="&lt;Path&gt;" class="s0" d="m303.4 1065.1h-15.1v-19h12.9v-14.9h15.1v18.9h-12.9z"/>
			</g>
		</g>
		<g id="&lt;Group&gt;">
			<g id="&lt;Group&gt;">
				<path id="&lt;Path&gt;" class="s0" d="m183 1140.8h15v18.9h-15v18.9h14.9v18.9h-15v-18.9h-15v-18.9h15v-18.9h-15v-19h14.9v-18.9h-15v-18.9h15v-18.9h-14.9v-19h14.5v-16.2h-15v-18.9h15v-18.9h-15v-19h14.9v-18.9h-15v-18.9h15.1v-18.9h-15v-19h14.9v-18.3h-15v-18.9h15v-18.9h-14.9v-19h14.8v-18.9h-15v-18.9h15.1v-18.9h-15v-19h14.5v-16.2h-15v-18.9h15.1v-18.9h-15v-18.9h14.9v-19h-15v-18.9h15v-18.9h-15v-18.9h14.8v-17.4h-15v-18.9h15v-18.9h-15v-18.9h14.9v-18.9h-15v-19h15v-18.9h-14.9v-18.9h14.5v-16.2h-15v-19h15v-18.9h-15v-18.9h14.9v-18.9h-15v-19h15.1v-18.9h-15v-18.9h14.9v-18.3h-15v-19h15v-18.9h-14.9v-18.9h14.8v-18.9h-14.9v-19h15v-18.9h-15v-18.9h14.5v-16.2h-15v-19h15.1v-18.9h-15v-18.9h14.9v-18.9h-15v-19h15v-18.9h-15v-18.9h15.1v18.9h15v18.9h-15.1v19h15v18.9h-14.8v18.9h14.9v18.9h-15v19h15v18.9h-14.5v16.2h15v18.9h-15.1v19h15v18.9h-14.9v18.9h15v18.9h-15v19h15v18.9h-14.9v18.3h14.9v18.9h-15v19h15v18.9h-14.9v18.9h15v18.9h-15v19h15v18.9h-14.6v16.2h15v18.9h-15v19h15v18.9h-14.9v18.9h15v18.9h-15v18.9h14.9v19h-14.7v17.3h15v18.9h-15.1v18.9h15v19h-14.8v18.9h14.9v18.9h-15v18.9h15v18.9h-14.5v16.3h15v18.9h-15.1v18.9h15v18.9h-14.9v19h15v18.9h-15v18.9h15v18.9h-15v18.4h15v18.9h-15v18.9h15v18.9h-14.9v19h15v18.9h-15v18.9h15v18.9h-14.6v16.3h15v18.9h-15v18.9h15v18.9h-14.9z"/>
			</g>
		</g>
		<g id="&lt;Group&gt;">
			<g id="&lt;Group&gt;">
				<path id="&lt;Path&gt;" class="s0" d="m213.1 1140.8h14.9v18.9h-14.9v18.9h14.8v18.9h-15.1v-18.9h-14.8v-18.9h14.9v-18.9h-14.8v-19h14.7v-18.9h-14.8v-18.9h14.8v-18.9h-14.8v-19h14.4v-16.2h-14.9v-18.9h14.9v-18.9h-14.8v-19h14.7v-18.9h-14.8v-18.9h14.8v-18.9h-14.8v-19h14.8v-18.3h-14.8v-18.9h14.8v-18.9h-14.8v-19h14.7v-18.9h-14.8v-18.9h14.9v-18.9h-14.9v-19h14.4v-16.2h-14.8v-18.9h14.8v-18.9h-14.8v-18.9h14.7v-19h-14.8v-18.9h14.9v-18.9h-14.8v-18.9h14.5v-17.4h-14.8v-18.9h14.9v-18.9h-14.8v-18.9h14.7v-18.9h-14.8v-19h14.8v-18.9h-14.8v-18.9h14.4v-16.2h-14.9v-19h14.9v-18.9h-14.8v-18.9h14.7v-18.9h-14.8v-19h14.8v-18.9h-14.8v-18.9h14.8v-18.3h-14.8v-19h14.8v-18.9h-14.8v-18.9h14.7v-18.9h-14.8v-19h14.9v-18.9h-14.9v-18.9h14.4v-16.2h-14.8v-19h14.8v-18.9h-14.8v-18.9h14.7v-18.9h-14.8v-19h14.9v-18.9h-14.8v-18.9h15v18.9h14.9v18.9h-14.9v19h14.8v18.9h-14.7v18.9h14.8v18.9h-14.8v19h14.8v18.9h-14.4v16.2h14.8v18.9h-14.8v19h14.8v18.9h-14.7v18.9h14.8v18.9h-14.9v19h14.9v18.9h-14.8v18.3h14.8v18.9h-14.8v19h14.8v18.9h-14.7v18.9h14.8v18.9h-14.9v19h14.8v18.9h-14.3v16.2h14.8v18.9h-14.9v19h14.9v18.9h-14.7v18.9h14.8v18.9h-14.9v18.9h14.8v19h-14.6v17.3h14.8v18.9h-14.8v18.9h14.8v19h-14.7v18.9h14.8v18.9h-14.8v18.9h14.8v18.9h-14.4v16.3h14.8v18.9h-14.8v18.9h14.8v18.9h-14.7v19h14.8v18.9h-14.9v18.9h14.9v18.9h-14.8v18.4h14.8v18.9h-14.8v18.9h14.8v18.9h-14.7v19h14.8v18.9h-14.9v18.9h14.8v18.9h-14.3v16.3h14.8v18.9h-14.9v18.9h14.8v18.9h-14.7z"/>
			</g>
		</g>
		<g id="&lt;Group&gt;">
			<g id="&lt;Group&gt;">
				<path id="&lt;Path&gt;" class="s0" d="m243.1 1140.8h15v18.9h-15v18.9h15v18.9h-15.1v-18.9h-15v-18.9h15v-18.9h-15v-19h14.9v-18.9h-15v-18.9h15.1v-18.9h-15v-19h14.5v-16.2h-15v-18.9h15.1v-18.9h-15v-19h14.8v-18.9h-14.9v-18.9h15v-18.9h-15v-19h14.9v-18.3h-15v-18.9h15.1v-18.9h-15v-19h14.9v-18.9h-15v-18.9h15v-18.9h-15v-19h14.5v-16.2h-14.9v-18.9h15v-18.9h-15v-18.9h14.9v-19h-15v-18.9h15v-18.9h-15v-18.9h14.8v-17.4h-15v-18.9h15v-18.9h-14.9v-18.9h14.8v-18.9h-15v-19h15.1v-18.9h-15v-18.9h14.5v-16.2h-15v-19h15.1v-18.9h-15v-18.9h14.8v-18.9h-14.9v-19h15v-18.9h-15v-18.9h14.9v-18.3h-15v-19h15.1v-18.9h-15v-18.9h14.9v-18.9h-15v-19h15v-18.9h-15v-18.9h14.5v-16.2h-14.9v-19h15v-18.9h-15v-18.9h14.9v-18.9h-15v-19h15v-18.9h-15v-18.9h15.1v18.9h15v18.9h-15v19h15v18.9h-14.9v18.9h15v18.9h-15.1v19h15v18.9h-14.5v16.2h15v18.9h-15v19h14.9v18.9h-14.8v18.9h15v18.9h-15.1v19h15v18.9h-14.9v18.3h15v18.9h-15.1v19h15v18.9h-14.9v18.9h15v18.9h-15v19h15v18.9h-14.5v16.2h14.9v18.9h-15v19h15v18.9h-14.9v18.9h15v18.9h-15v18.9h15v19h-14.8v17.3h15v18.9h-15v18.9h15v19h-14.9v18.9h15v18.9h-15.1v18.9h15v18.9h-14.5v16.3h15v18.9h-15v18.9h14.9v18.9h-14.8v19h14.9v18.9h-15v18.9h15v18.9h-14.9v18.4h15v18.9h-15.1v18.9h15v18.9h-14.9v19h15v18.9h-15v18.9h15v18.9h-14.5v16.3h14.9v18.9h-15v18.9h15v18.9h-14.9z"/>
			</g>
		</g>
		<g id="&lt;Group&gt;">
			<g id="&lt;Group&gt;">
				<path id="&lt;Path&gt;" class="s0" d="m273.3 1140.8h15v18.9h-15.1v18.9h15v18.9h-15.1v-18.9h-14.9v-18.9h15v-18.9h-15v-19h14.9v-18.9h-15v-18.9h15v-18.9h-15v-19h14.6v-16.2h-15v-18.9h15v-18.9h-15v-19h14.9v-18.9h-15v-18.9h15v-18.9h-14.9v-19h14.9v-18.3h-15v-18.9h15v-18.9h-15v-19h14.9v-18.9h-15v-18.9h15.1v-18.9h-15v-19h14.5v-16.2h-15v-18.9h15v-18.9h-14.9v-18.9h14.8v-19h-15v-18.9h15.1v-18.9h-15v-18.9h14.7v-17.4h-14.9v-18.9h15v-18.9h-15v-18.9h14.9v-18.9h-15v-19h15v-18.9h-15v-18.9h14.6v-16.2h-15v-19h15v-18.9h-15v-18.9h14.9v-18.9h-15v-19h15v-18.9h-14.9v-18.9h14.9v-18.3h-15v-19h15v-18.9h-15v-18.9h14.9v-18.9h-15v-19h15.1v-18.9h-15v-18.9h14.5v-16.2h-15v-19h15v-18.9h-14.9v-18.9h14.8v-18.9h-15v-19h15.1v-18.9h-15v-18.9h15.1v18.9h15v18.9h-15.1v19h15v18.9h-14.9v18.9h15v18.9h-15v19h15v18.9h-14.6v16.2h15v18.9h-15v19h15v18.9h-14.9v18.9h15v18.9h-15v19h15v18.9h-15v18.3h15v18.9h-15v19h15v18.9h-14.9v18.9h15v18.9h-15v19h14.9v18.9h-14.5v16.2h15v18.9h-15v19h15v18.9h-14.9v18.9h15v18.9h-15.1v18.9h15v19h-14.7v17.3h15v18.9h-15.1v18.9h15v19h-14.9v18.9h15v18.9h-15v18.9h15v18.9h-14.6v16.3h15v18.9h-15v18.9h15v18.9h-14.9v19h15v18.9h-15v18.9h15v18.9h-15v18.4h15v18.9h-15v18.9h15v18.9h-14.9v19h15v18.9h-15.1v18.9h15v18.9h-14.5v16.3h15v18.9h-15v18.9h15v18.9h-14.9z"/>
			</g>
		</g>
		<g id="&lt;Group&gt;">
			<g id="&lt;Group&gt;">
				<path id="&lt;Path&gt;" class="s0" d="m301.2 917.7h15v18.9h-13.4v17.6h-15v-18.9h13.4z"/>
			</g>
		</g>
		<g id="&lt;Group&gt;">
			<g id="&lt;Group&gt;">
				<path id="&lt;Path&gt;" class="s0" d="m301.2 993.4h15.1v18.9h-13.4v17.6h-15.1v-18.9h13.4z"/>
			</g>
		</g>
		<g id="&lt;Group&gt;">
			<g id="&lt;Group&gt;">
				<path id="&lt;Path&gt;" class="s0" d="m602.1 917.7h-15v-19h14.7v-17.8h15.1v19h-14.8z"/>
			</g>
		</g>
		<g id="&lt;Group&gt;">
			<g id="&lt;Group&gt;">
				<path id="&lt;Path&gt;" class="s0" d="m602.2 993.4h-15.1v-19h14.7v-18.4h15.1v19h-14.7z"/>
			</g>
		</g>
		<g id="&lt;Group&gt;">
			<g id="&lt;Group&gt;">
				<path id="&lt;Path&gt;" class="s0" d="m316.7 1085.3h-13.4v17.6h-15.1v-18.9h13.4v-17.6h15.1z"/>
			</g>
		</g>
		<g id="&lt;Group&gt;">
			<g id="&lt;Group&gt;">
				<path id="&lt;Path&gt;" class="s0" d="m301.6 1104.2h15.1v18.9h-13.3v17.7h-15v-19h13.2z"/>
			</g>
		</g>
		<g id="&lt;Group&gt;">
			<g id="&lt;Group&gt;">
				<path id="&lt;Path&gt;" class="s0" d="m332 1142.1h14.9v18.9h-15v18.9h15v18.9h-15.1v-18.9h-15v-18.9h15.1v-18.9h-15v-19h14.9v-18.9h-15v-18.9h15v-18.9h-15v-19h14.5v-16.2h-15v-18.9h15.1v-18.9h-15v-19h14.9v-18.9h-15v-18.9h15v-18.9h-15v-19h15v-18.3h-15v-18.9h15v-18.9h-15v-18.9h14.9v-19h-15v-18.9h15v-18.9h-15v-18.9h14.6v-16.3h-15v-18.9h15v-18.9h-15v-18.9h14.9v-19h-15v-18.9h15.1v-18.9h-15v-18.9h14.7v-17.3h-15v-19h15.1v-18.9h-15v-18.9h14.9v-18.9h-15v-19h15v-18.9h-15v-18.9h14.5v-16.2h-14.9v-19h15v-18.9h-15v-18.9h14.9v-18.9h-15v-19h15v-18.9h-15v-18.9h15v-18.3h-15v-19h15v-18.9h-15v-18.9h14.9v-18.9h-15v-18.9h15v-19h-15v-18.9h14.6v-16.2h-15v-18.9h15v-19h-15v-18.9h14.9v-18.9h-15v-18.9h15.1v-19h-15v-18.9h15v18.9h15v19h-15v18.9h15v18.9h-14.9v18.9h15v19h-15v18.9h15v18.9h-14.6v16.2h15v19h-15v18.9h15v18.9h-14.9v18.9h15v18.9h-15.1v19h15v18.9h-14.9v18.3h15v18.9h-15v19h14.9v18.9h-14.8v18.9h15v18.9h-15.1v19h15v18.9h-14.5v16.2h15v18.9h-15.1v19h15v18.9h-14.8v18.9h14.9v18.9h-15v19h15v18.9h-14.8v17.3h15v18.9h-15v18.9h15v19h-14.9v18.9h15v18.9h-15v18.9h15v19h-14.6v16.2h15v18.9h-15v18.9h15v19h-14.9v18.9h15v18.9h-15.1v18.9h15v19h-14.9v18.3h15v18.9h-15v18.9h14.9v18.9h-14.8v19h15v18.9h-15.1v18.9h15v18.9h-14.5v16.3h15v18.9h-15.1v18.9h15v18.9h-14.8z"/>
			</g>
		</g>
		<g id="&lt;Group&gt;">
			<g id="&lt;Group&gt;">
				<path id="&lt;Path&gt;" class="s0" d="m362.1 1142.1h14.8v18.9h-14.8v18.9h14.8v18.9h-15.1v-18.9h-14.8v-18.9h14.8v-18.9h-14.8v-19h14.7v-18.9h-14.8v-18.9h14.9v-18.9h-14.8v-19h14.3v-16.2h-14.8v-18.9h14.9v-18.9h-14.9v-19h14.7v-18.9h-14.8v-18.9h14.9v-18.9h-14.8v-19h14.7v-18.3h-14.8v-18.9h14.9v-18.9h-14.8v-18.9h14.7v-19h-14.8v-18.9h14.8v-18.9h-14.8v-18.9h14.4v-16.3h-14.9v-18.9h14.9v-18.9h-14.8v-18.9h14.7v-19h-14.8v-18.9h14.8v-18.9h-14.8v-18.9h14.6v-17.3h-14.8v-19h14.8v-18.9h-14.8v-18.9h14.7v-18.9h-14.8v-19h14.9v-18.9h-14.8v-18.9h14.3v-16.2h-14.8v-19h14.9v-18.9h-14.9v-18.9h14.7v-18.9h-14.8v-19h14.9v-18.9h-14.8v-18.9h14.7v-18.3h-14.8v-19h14.9v-18.9h-14.8v-18.9h14.7v-18.9h-14.8v-18.9h14.8v-19h-14.8v-18.9h14.4v-16.2h-14.9v-18.9h14.9v-19h-14.8v-18.9h14.7v-18.9h-14.8v-18.9h14.8v-19h-14.8v-18.9h15.1v18.9h14.8v19h-14.9v18.9h14.9v18.9h-14.7v18.9h14.8v19h-14.9v18.9h14.8v18.9h-14.3v16.2h14.8v19h-14.9v18.9h14.8v18.9h-14.7v18.9h14.9v18.9h-14.9v19h14.8v18.9h-14.7v18.3h14.8v18.9h-14.9v19h14.8v18.9h-14.7v18.9h14.8v18.9h-14.8v19h14.8v18.9h-14.4v16.2h14.8v18.9h-14.8v19h14.8v18.9h-14.7v18.9h14.8v18.9h-14.8v19h14.8v18.9h-14.6v17.3h14.8v18.9h-14.9v18.9h14.9v19h-14.7v18.9h14.8v18.9h-14.9v18.9h14.8v19h-14.3v16.2h14.8v18.9h-14.9v18.9h14.8v19h-14.7v18.9h14.9v18.9h-14.9v18.9h14.8v19h-14.7v18.3h14.8v18.9h-14.9v18.9h14.8v18.9h-14.7v19h14.8v18.9h-14.8v18.9h14.8v18.9h-14.4v16.3h14.8v18.9h-14.8v18.9h14.8v18.9h-14.7z"/>
			</g>
		</g>
		<g id="&lt;Group&gt;">
			<g id="&lt;Group&gt;">
				<path id="&lt;Path&gt;" class="s0" d="m392.1 1142.1h15v18.9h-15.1v18.9h15v18.9h-15.1v-18.9h-14.9v-18.9h15v-18.9h-15v-19h14.9v-18.9h-15v-18.9h15v-18.9h-15v-19h14.6v-16.2h-15v-18.9h15v-18.9h-15v-19h14.9v-18.9h-15v-18.9h15v-18.9h-14.9v-19h14.9v-18.3h-15v-18.9h15v-18.9h-15v-18.9h14.9v-19h-15v-18.9h15.1v-18.9h-15v-18.9h14.5v-16.3h-15v-18.9h15v-18.9h-14.9v-18.9h14.8v-19h-15v-18.9h15.1v-18.9h-15v-18.9h14.7v-17.3h-14.9v-19h15v-18.9h-15v-18.9h14.9v-18.9h-15v-19h15v-18.9h-15v-18.9h14.6v-16.2h-15v-19h15v-18.9h-15v-18.9h14.9v-18.9h-15v-19h15v-18.9h-14.9v-18.9h14.9v-18.3h-15v-19h15v-18.9h-15v-18.9h14.9v-18.9h-15v-18.9h15.1v-19h-15v-18.9h14.5v-16.2h-15v-18.9h15v-19h-14.9v-18.9h14.8v-18.9h-15v-18.9h15.1v-19h-15v-18.9h15.1v18.9h15v19h-15.1v18.9h15v18.9h-14.9v18.9h15v19h-15v18.9h15v18.9h-14.5v16.2h14.9v19h-15v18.9h15v18.9h-14.9v18.9h15v18.9h-15v19h15v18.9h-15v18.3h15v18.9h-15v19h15v18.9h-14.9v18.9h15v18.9h-15v19h14.9v18.9h-14.5v16.2h15v18.9h-15v19h15v18.9h-14.9v18.9h15v18.9h-15.1v19h15v18.9h-14.7v17.3h15v18.9h-15.1v18.9h15v19h-14.9v18.9h15v18.9h-15v18.9h15v19h-14.6v16.2h15v18.9h-15v18.9h15v19h-14.9v18.9h15v18.9h-15v18.9h15v19h-15v18.3h15v18.9h-15v18.9h15v18.9h-14.9v19h15v18.9h-15v18.9h14.9v18.9h-14.5v16.3h15v18.9h-15v18.9h15v18.9h-14.9z"/>
			</g>
		</g>
		<g id="&lt;Group&gt;">
			<g id="&lt;Group&gt;">
				<path id="&lt;Path&gt;" class="s0" d="m422.2 1142.1h15v18.9h-15v18.9h15v18.9h-15.1v-18.9h-15v-18.9h15v-18.9h-14.9v-19h14.8v-18.9h-15v-18.9h15.1v-18.9h-15v-19h14.5v-16.2h-15v-18.9h15.1v-18.9h-15v-19h14.9v-18.9h-15v-18.9h15v-18.9h-15v-19h14.9v-18.3h-15v-18.9h15.1v-18.9h-15v-18.9h14.9v-19h-15v-18.9h15v-18.9h-15v-18.9h14.6v-16.3h-15v-18.9h15v-18.9h-15v-18.9h14.9v-19h-15v-18.9h15v-18.9h-15v-18.9h14.8v-17.3h-15v-19h15v-18.9h-14.9v-18.9h14.8v-18.9h-15v-19h15.1v-18.9h-15v-18.9h14.5v-16.2h-15v-19h15.1v-18.9h-15v-18.9h14.9v-18.9h-15v-19h15v-18.9h-15v-18.9h14.9v-18.3h-15v-19h15.1v-18.9h-15v-18.9h14.9v-18.9h-15v-18.9h15v-19h-15v-18.9h14.6v-16.2h-15v-18.9h15v-19h-15v-18.9h14.9v-18.9h-15v-18.9h15v-19h-15v-18.9h15.1v18.9h15v19h-15v18.9h15v18.9h-14.9v18.9h15v19h-15.1v18.9h15v18.9h-14.5v16.2h15v19h-15v18.9h14.9v18.9h-14.8v18.9h15v18.9h-15.1v19h15v18.9h-14.9v18.3h15v18.9h-15.1v19h15v18.9h-14.9v18.9h15v18.9h-15v19h15v18.9h-14.5v16.2h15v18.9h-15.1v19h15v18.9h-14.9v18.9h15v18.9h-15v19h15v18.9h-14.8v17.3h15v18.9h-15v18.9h15v19h-14.9v18.9h15v18.9h-15.1v18.9h15v19h-14.5v16.2h15v18.9h-15v18.9h14.9v19h-14.8v18.9h15v18.9h-15.1v18.9h15v19h-14.9v18.3h15v18.9h-15.1v18.9h15v18.9h-14.9v19h15v18.9h-15v18.9h15v18.9h-14.5v16.3h15v18.9h-15.1v18.9h15v18.9h-14.9z"/>
			</g>
		</g>
		<g id="&lt;Group&gt;">
			<g id="&lt;Group&gt;">
				<path id="&lt;Path&gt;" class="s0" d="m452.4 1142.1h14.7v18.9h-14.8v18.9h14.7v18.9h-15v-18.9h-14.7v-18.9h14.7v-18.9h-14.7v-19h14.6v-18.9h-14.7v-18.9h14.7v-18.9h-14.7v-19h14.3v-16.2h-14.7v-18.9h14.7v-18.9h-14.7v-19h14.6v-18.9h-14.7v-18.9h14.8v-18.9h-14.7v-19h14.6v-18.3h-14.7v-18.9h14.8v-18.9h-14.8v-18.9h14.6v-19h15.1v19h-14.6v18.9h14.7v18.9h-14.7v18.9h14.7v19h-14.7v18.3h14.7v18.9h-14.7v18.9h14.7v18.9h-14.6v19h14.7v18.9h-14.7v18.9h14.7v18.9h-14.3v16.3h14.7v18.9h-14.7v18.9h14.7v18.9h-14.6z"/>
			</g>
		</g>
		<g id="&lt;Group&gt;">
			<g id="&lt;Group&gt;">
				<path id="&lt;Path&gt;" class="s0" d="m301.7 1142.1h15.1v18.9h-13.4v17.6h-15.1v-18.9h13.4z"/>
			</g>
		</g>
		<g id="&lt;Group&gt;">
			<g id="&lt;Group&gt;">
				<path id="&lt;Path&gt;" class="s0" d="m301.7 1179.9h15v18.9h-15z"/>
			</g>
		</g>
		<g id="&lt;Group&gt;">
			<g id="&lt;Group&gt;">
				<path id="&lt;Path&gt;" class="s0" d="m602.6 1066.4h-15.1v-19h14.4v-15.7h15.1v19h-14.4z"/>
			</g>
		</g>
		<g id="&lt;Group&gt;">
			<g id="&lt;Group&gt;">
				<path id="&lt;Path&gt;" class="s0" d="m482.3 1142.1h14.9v18.9h-15v18.9h15v18.9h-15.1v-18.9h-15v-18.9h15.1v-18.9h-15v-19h14.9v-18.9h-15v-18.9h15v-18.9h-15v-19h14.5v-16.2h-14.9v-18.9h15v-18.9h-15v-19h14.9v-18.9h-15v-18.9h15v-18.9h-15v-19h15v-18.3h-15v-18.9h15v-18.9h-15v-18.9h14.9v-19h-15v-18.9h15v-18.9h-15v-18.9h14.6v-16.3h-15v-18.9h15v-18.9h-15v-18.9h14.9v-19h-15v-18.9h15.1v-18.9h-15v-18.9h14.7v-17.3h-15v-19h15.1v-18.9h-15v-18.9h14.9v-18.9h-15v-19h15v-18.9h-15v-18.9h14.5v-16.2h-14.9v-19h15v-18.9h-15v-18.9h14.9v-18.9h-15v-19h15v-18.9h-15v-18.9h15v-18.3h-15v-19h15v-18.9h-15v-18.9h14.9v-18.9h-15v-18.9h15v-19h-14.9v-18.9h14.5v-16.2h-15v-18.9h15v-19h-15v-18.9h14.9v-18.9h-15v-18.9h15.1v-19h-15v-18.9h15v18.9h15v19h-15v18.9h15v18.9h-14.9v18.9h15v19h-15v18.9h15v18.9h-14.6v16.2h15v19h-15v18.9h15v18.9h-14.9v18.9h15v18.9h-15.1v19h15v18.9h-14.9v18.3h15v18.9h-15v19h15v18.9h-14.9v18.9h15v18.9h-15.1v19h15v18.9h-14.5v16.2h15v18.9h-15.1v19h15v18.9h-14.8v18.9h14.9v18.9h-15v19h15v18.9h-14.8v17.3h15v18.9h-15v18.9h15v19h-14.9v18.9h15v18.9h-15v18.9h15v19h-14.6v16.2h15v18.9h-15v18.9h15v19h-14.9v18.9h15v18.9h-15.1v18.9h15v19h-14.9v18.3h15v18.9h-15v18.9h15v18.9h-14.9v19h15v18.9h-15.1v18.9h15v18.9h-14.5v16.3h15v18.9h-15.1v18.9h15v18.9h-14.8z"/>
			</g>
		</g>
		<g id="&lt;Group&gt;">
			<g id="&lt;Group&gt;">
				<path id="&lt;Path&gt;" class="s0" d="m512.4 1142.1h14.8v18.9h-14.8v18.9h14.8v18.9h-15.1v-18.9h-14.8v-18.9h14.8v-18.9h-14.8v-19h14.7v-18.9h-14.8v-18.9h14.9v-18.9h-14.8v-19h14.3v-16.2h-14.8v-18.9h14.9v-18.9h-14.9v-19h14.8v-18.9h-14.9v-18.9h14.9v-18.9h-14.8v-19h14.7v-18.3h-14.8v-18.9h14.9v-18.9h-14.8v-18.9h14.7v-19h-14.8v-18.9h14.8v-18.9h-14.8v-18.9h14.4v-16.3h-14.9v-18.9h14.9v-18.9h-14.8v-18.9h14.7v-19h-14.8v-18.9h14.8v-18.9h-14.8v-18.9h14.6v-17.3h-14.8v-19h14.8v-18.9h-14.8v-18.9h14.7v-18.9h-14.8v-19h14.9v-18.9h-14.8v-18.9h14.3v-16.2h-14.8v-19h14.9v-18.9h-14.8v-18.9h14.7v-18.9h-14.9v-19h14.9v-18.9h-14.8v-18.9h14.7v-18.3h-14.8v-19h14.9v-18.9h-14.8v-18.9h14.7v-18.9h-14.8v-18.9h14.8v-19h-14.8v-18.9h14.4v-16.2h-14.9v-18.9h14.9v-19h-14.8v-18.9h14.7v-18.9h-14.8v-18.9h14.8v-19h-14.8v-18.9h15.1v18.9h14.8v19h-14.8v18.9h14.8v18.9h-14.7v18.9h14.8v19h-14.9v18.9h14.8v18.9h-14.3v16.2h14.8v19h-14.9v18.9h14.8v18.9h-14.7v18.9h14.9v18.9h-14.9v19h14.8v18.9h-14.7v18.3h14.8v18.9h-14.9v19h14.8v18.9h-14.7v18.9h14.8v18.9h-14.8v19h14.8v18.9h-14.4v16.2h14.9v18.9h-14.9v19h14.8v18.9h-14.7v18.9h14.8v18.9h-14.8v19h14.8v18.9h-14.6v17.3h14.8v18.9h-14.8v18.9h14.8v19h-14.7v18.9h14.8v18.9h-14.9v18.9h14.8v19h-14.3v16.2h14.8v18.9h-14.9v18.9h14.8v19h-14.7v18.9h14.9v18.9h-14.9v18.9h14.8v19h-14.7v18.3h14.8v18.9h-14.9v18.9h14.8v18.9h-14.7v19h14.8v18.9h-14.8v18.9h14.8v18.9h-14.4v16.3h14.9v18.9h-14.9v18.9h14.8v18.9h-14.7z"/>
			</g>
		</g>
		<g id="&lt;Group&gt;">
			<g id="&lt;Group&gt;">
				<path id="&lt;Path&gt;" class="s0" d="m542.4 1142.1h15v18.9h-15.1v18.9h15v18.9h-15v-18.9h-15v-18.9h15v-18.9h-15v-19h14.9v-18.9h-15v-18.9h15v-18.9h-15v-19h14.6v-16.2h-15v-18.9h15v-18.9h-15v-19h14.9v-18.9h-15v-18.9h15v-18.9h-14.9v-19h14.9v-18.3h-15v-18.9h15v-18.9h-15v-18.9h14.9v-19h-15v-18.9h15.1v-18.9h-15v-18.9h14.5v-16.3h-15v-18.9h15v-18.9h-14.9v-18.9h14.8v-19h-14.9v-18.9h15v-18.9h-15v-18.9h14.8v-17.3h-15v-19h15v-18.9h-15v-18.9h14.9v-18.9h-15v-19h15v-18.9h-15v-18.9h14.6v-16.2h-15v-19h15v-18.9h-15v-18.9h14.9v-18.9h-15v-19h15v-18.9h-14.9v-18.9h14.9v-18.3h-15v-19h15v-18.9h-15v-18.9h14.9v-18.9h-15v-18.9h15.1v-19h-15v-18.9h14.5v-16.2h-15v-18.9h15.1v-19h-15v-18.9h14.8v-18.9h-14.9v-18.9h15v-19h-15v-18.9h15.1v18.9h15v19h-15.1v18.9h15v18.9h-14.9v18.9h15v19h-15v18.9h15v18.9h-14.5v16.2h14.9v19h-15v18.9h15v18.9h-14.9v18.9h15v18.9h-15v19h15v18.9h-15v18.3h15v18.9h-15v19h15v18.9h-14.9v18.9h15v18.9h-15v19h14.9v18.9h-14.5v16.2h15v18.9h-15v19h15v18.9h-14.9v18.9h15v18.9h-15.1v19h15v18.9h-14.7v17.3h15v18.9h-15.1v18.9h15v19h-14.9v18.9h15v18.9h-15v18.9h15v19h-14.5v16.2h14.9v18.9h-15v18.9h15v19h-14.9v18.9h15v18.9h-15v18.9h15v19h-15v18.3h15v18.9h-15v18.9h15v18.9h-14.9v19h15v18.9h-15v18.9h14.9v18.9h-14.5v16.3h15v18.9h-15v18.9h15v18.9h-14.9z"/>
			</g>
		</g>
		<g id="&lt;Group&gt;">
			<g id="&lt;Group&gt;">
				<path id="&lt;Path&gt;" class="s0" d="m572.5 1142.1h15v18.9h-15v18.9h15v18.9h-15.1v-18.9h-15v-18.9h15v-18.9h-14.9v-19h14.8v-18.9h-15v-18.9h15.1v-18.9h-15v-19h14.5v-16.2h-15v-18.9h15.1v-18.9h-15v-19h14.9v-18.9h-15v-18.9h15v-18.9h-15v-19h14.9v-18.3h-14.9v-18.9h15v-18.9h-15v-18.9h14.9v-19h-15v-18.9h15v-18.9h-15v-18.9h14.6v-16.3h-15v-18.9h15v-18.9h-15v-18.9h14.9v-19h-15v-18.9h15v-18.9h-15v-18.9h14.8v-17.3h-15v-19h15v-18.9h-14.9v-18.9h14.8v-18.9h-14.9v-19h15v-18.9h-15v-18.9h14.5v-16.2h-15v-19h15.1v-18.9h-15v-18.9h14.9v-18.9h-15v-19h15v-18.9h-15v-18.9h14.9v-18.3h-14.9v-19h15v-18.9h-15v-18.9h14.9v-18.9h-15v-18.9h15v-19h-15v-18.9h14.6v-16.2h-15v-18.9h15v-19h-15v-18.9h14.9v-18.9h-15v-18.9h15v-19h-15v-18.9h15.1v18.9h15v19h-15v18.9h15v18.9h-14.9v18.9h15v19h-15.1v18.9h15v18.9h-14.5v16.2h15v19h-15v18.9h14.9v18.9h-14.8v18.9h15v18.9h-15.1v19h15v18.9h-14.9v18.3h15v18.9h-15.1v19h15v18.9h-14.8v18.9h14.9v18.9h-15v19h15v18.9h-14.5v16.2h15v18.9h-15.1v19h15v18.9h-14.9v18.9h15v18.9h-15v19h15v18.9h-14.8v17.3h15v18.9h-15v18.9h15v19h-14.9v18.9h15v18.9h-15.1v18.9h15v19h-14.5v16.2h15v18.9h-15v18.9h14.9v19h-14.8v18.9h15v18.9h-15.1v18.9h15v19h-14.9v18.3h15v18.9h-15.1v18.9h15v18.9h-14.8v19h14.9v18.9h-15v18.9h15v18.9h-14.5v16.3h15v18.9h-15.1v18.9h15v18.9h-14.9z"/>
			</g>
		</g>
		<g id="&lt;Group&gt;">
			<g id="&lt;Group&gt;">
				<path id="&lt;Path&gt;" class="s0" d="m601.3 618.7h15.1v18.9h-14.9v18.4h-15v-18.9h14.8z"/>
			</g>
		</g>
		<g id="&lt;Group&gt;">
			<g id="&lt;Group&gt;">
				<path id="&lt;Path&gt;" class="s0" d="m601.4 694.4h15.1v18.9h-14.9v18.4h-15.1v-18.9h14.9z"/>
			</g>
		</g>
		<g id="&lt;Group&gt;">
			<g id="&lt;Group&gt;">
				<path id="&lt;Path&gt;" class="s0" d="m902.3 618.7h-15.1v-18.9h13.1v-16h15.1v18.9h-13.1z"/>
			</g>
		</g>
		<g id="&lt;Group&gt;">
			<g id="&lt;Group&gt;">
				<path id="&lt;Path&gt;" class="s0" d="m902.4 694.4h-15.1v-18.9h13.2v-17.6h15.1v18.9h-13.2z"/>
			</g>
		</g>
		<g id="&lt;Group&gt;">
			<g id="&lt;Group&gt;">
				<path id="&lt;Path&gt;" class="s0" d="m601.8 767.4h15.1v18.9h-14.9v18.4h-15.1v-18.9h14.9z"/>
			</g>
		</g>
		<g id="&lt;Group&gt;">
			<g id="&lt;Group&gt;">
				<path id="&lt;Path&gt;" class="s0" d="m601.9 843.1h15v18.9h-14.8v18.4h-15.1v-18.9h14.9z"/>
			</g>
		</g>
		<g id="&lt;Group&gt;">
			<g id="&lt;Group&gt;">
				<path id="&lt;Path&gt;" class="s0" d="m902.8 767.4h-15.1v-18.9h12.9v-14.9h15.1v18.9h-12.9z"/>
			</g>
		</g>
		<g id="&lt;Group&gt;">
			<g id="&lt;Group&gt;">
				<path id="&lt;Path&gt;" class="s0" d="m902.8 843.1h-15v-18.9h13.2v-17.6h15.1v18.9h-13.3z"/>
			</g>
		</g>
		<g id="&lt;Group&gt;">
			<g id="&lt;Group&gt;">
				<path id="&lt;Path&gt;" class="s0" d="m900.6 620h15v18.9h-13.4v17.7h-15v-19h13.4z"/>
			</g>
		</g>
		<g id="&lt;Group&gt;">
			<g id="&lt;Group&gt;">
				<path id="&lt;Path&gt;" class="s0" d="m900.6 695.7h15.1v18.9h-13.4v17.7h-15.1v-19h13.4z"/>
			</g>
		</g>
		<g id="&lt;Group&gt;">
			<g id="&lt;Group&gt;">
				<path id="&lt;Path&gt;" class="s0" d="m1186.5 601.1h15.1v18.9h-15.1z"/>
			</g>
		</g>
		<g id="&lt;Group&gt;">
			<g id="&lt;Group&gt;">
				<path id="&lt;Path&gt;" class="s0" d="m1201.5 657.9h-15.1v-19h15.1z"/>
			</g>
		</g>
		<g id="&lt;Group&gt;">
			<g id="&lt;Group&gt;">
				<path id="&lt;Path&gt;" class="s0" d="m1186.5 676.8h15.1v18.9h-15.1z"/>
			</g>
		</g>
		<g id="&lt;Group&gt;">
			<g id="&lt;Group&gt;">
				<path id="&lt;Path&gt;" class="s0" d="m1201.6 733.6h-15.1v-19h15.1z"/>
			</g>
		</g>
		<g id="&lt;Group&gt;">
			<g id="&lt;Group&gt;">
				<path id="&lt;Path&gt;" class="s0" d="m901.1 768.7h15v18.9h-13.4v17.6h-15v-18.9h13.4z"/>
			</g>
		</g>
		<g id="&lt;Group&gt;">
			<g id="&lt;Group&gt;">
				<path id="&lt;Path&gt;" class="s0" d="m901.1 844.4h15.1v18.9h-13.4v17.6h-15.1v-18.9h13.4z"/>
			</g>
		</g>
		<g id="&lt;Group&gt;">
			<g id="&lt;Group&gt;">
				<path id="&lt;Path&gt;" class="s0" d="m1187 749.8h15v18.9h-15z"/>
			</g>
		</g>
		<g id="&lt;Group&gt;">
			<g id="&lt;Group&gt;">
				<path id="&lt;Path&gt;" class="s0" d="m1202 806.6h-15.1v-19h15.1z"/>
			</g>
		</g>
		<g id="&lt;Group&gt;">
			<g id="&lt;Group&gt;">
				<path id="&lt;Path&gt;" class="s0" d="m1187 825.5h15.1v18.9h-15.1z"/>
			</g>
		</g>
		<g id="&lt;Group&gt;">
			<g id="&lt;Group&gt;">
				<path id="&lt;Path&gt;" class="s0" d="m1202.1 882.3h-15.1v-19h15.1z"/>
			</g>
		</g>
		<g id="&lt;Group&gt;">
			<g id="&lt;Group&gt;">
				<path id="&lt;Path&gt;" class="s0" d="m601.9 918.2h15.1v18.9h-14.9v18.4h-15.1v-18.9h14.9z"/>
			</g>
		</g>
		<g id="&lt;Group&gt;">
			<g id="&lt;Group&gt;">
				<path id="&lt;Path&gt;" class="s0" d="m601.9 993.9h15.1v18.9h-14.8v18.4h-15.1v-18.9h14.8z"/>
			</g>
		</g>
		<g id="&lt;Group&gt;">
			<g id="&lt;Group&gt;">
				<path id="&lt;Path&gt;" class="s0" d="m902.9 918.2h-15.1v-18.9h13.3v-17h15.1v18.9h-13.3z"/>
			</g>
		</g>
		<g id="&lt;Group&gt;">
			<g id="&lt;Group&gt;">
				<path id="&lt;Path&gt;" class="s0" d="m902.9 993.9h-15.1v-18.9h13.3v-17.7h15.1v19h-13.3z"/>
			</g>
		</g>
		<g id="&lt;Group&gt;">
			<g id="&lt;Group&gt;">
				<path id="&lt;Path&gt;" class="s0" d="m617.4 1085.8h-14.8v18.4h-15.1v-18.9h14.9v-18.4h15z"/>
			</g>
		</g>
		<g id="&lt;Group&gt;">
			<g id="&lt;Group&gt;">
				<path id="&lt;Path&gt;" class="s0" d="m602.3 1104.7h15.1v19h-14.7v18.4h-15.1v-19h14.7z"/>
			</g>
		</g>
		<g id="&lt;Group&gt;">
			<g id="&lt;Group&gt;">
				<path id="&lt;Path&gt;" class="s0" d="m632.7 1142.6h15v18.9h-15.1v18.9h15v19h-15.1v-19h-15v-18.9h15.1v-18.9h-15v-18.9h14.9v-19h-15v-18.9h15v-18.9h-15v-18.9h14.6v-16.3h-15v-18.9h15v-18.9h-15v-18.9h14.9v-19h-15v-18.9h15v-18.9h-15v-18.9h15v-18.4h-15v-18.9h15v-18.9h-15v-18.9h14.9v-19h-15v-18.9h15v-18.9h-14.9v-18.9h14.5v-16.2h-15v-19h15v-18.9h-15v-18.9h14.9v-18.9h-15v-19h15.1v-18.9h-15v-18.9h14.7v-17.3h-14.9v-18.9h15v-19h-15v-18.9h14.9v-18.9h-15v-18.9h15v-19h-15v-18.9h14.6v-16.2h-15v-18.9h15v-19h-15v-18.9h14.9v-18.9h-15v-18.9h15v-19h-15v-18.9h15v-18.3h-15v-18.9h15v-19h-15v-18.9h14.9v-18.9h-15v-18.9h15.1v-19h-15v-18.9h14.5v-16.2h-15v-18.9h15v-18.9h-15v-19h14.9v-18.9h-15v-18.9h15.1v-18.9h-15v-19h15.1v19h14.9v18.9h-15v18.9h15v18.9h-14.9v19h15v18.9h-15v18.9h15v18.9h-14.6v16.2h15v19h-15v18.9h15v18.9h-14.9v18.9h15v19h-15v18.9h15v18.9h-15v18.3h15v19h-15v18.9h15v18.9h-14.9v18.9h15v19h-15.1v18.9h15v18.9h-14.5v16.2h15v19h-15v18.9h14.9v18.9h-14.8v18.9h15v19h-15.1v18.9h15v18.9h-14.7v17.3h14.9v18.9h-15v19h15v18.9h-14.9v18.9h15v18.9h-15v19h15v18.9h-14.6v16.2h15v18.9h-15v18.9h15v19h-14.9v18.9h15v18.9h-15v18.9h14.9v19h-14.9v18.3h15v18.9h-15v18.9h15v19h-14.9v18.9h15v18.9h-15.1v18.9h15v19h-14.5v16.2h15v18.9h-15v18.9h14.9v19h-14.8z"/>
			</g>
		</g>
		<g id="&lt;Group&gt;">
			<g id="&lt;Group&gt;">
				<path id="&lt;Path&gt;" class="s0" d="m662.8 1142.6h14.8v18.9h-14.8v18.9h14.8v19h-15.1v-19h-14.8v-18.9h14.9v-18.9h-14.9v-18.9h14.7v-19h-14.8v-18.9h14.9v-18.9h-14.8v-18.9h14.3v-16.3h-14.8v-18.9h14.9v-18.9h-14.8v-18.9h14.7v-19h-14.8v-18.9h14.8v-18.9h-14.8v-18.9h14.7v-18.4h-14.8v-18.9h14.9v-18.9h-14.8v-18.9h14.7v-19h-14.8v-18.9h14.8v-18.9h-14.8v-18.9h14.4v-16.2h-14.8v-19h14.8v-18.9h-14.8v-18.9h14.7v-18.9h-14.8v-19h14.8v-18.9h-14.8v-18.9h14.6v-17.3h-14.8v-18.9h14.9v-19h-14.9v-18.9h14.7v-18.9h-14.8v-18.9h14.9v-19h-14.8v-18.9h14.3v-16.2h-14.8v-18.9h14.9v-19h-14.8v-18.9h14.7v-18.9h-14.8v-18.9h14.8v-19h-14.8v-18.9h14.8v-18.3h-14.9v-18.9h14.9v-19h-14.8v-18.9h14.7v-18.9h-14.8v-18.9h14.8v-19h-14.8v-18.9h14.4v-16.2h-14.8v-18.9h14.8v-18.9h-14.8v-19h14.7v-18.9h-14.8v-18.9h14.8v-18.9h-14.8v-19h15.1v19h14.8v18.9h-14.8v18.9h14.8v18.9h-14.7v19h14.8v18.9h-14.9v18.9h14.8v18.9h-14.3v16.2h14.8v19h-14.9v18.9h14.9v18.9h-14.7v18.9h14.8v19h-14.9v18.9h14.8v18.9h-14.7v18.3h14.8v19h-14.9v18.9h14.8v18.9h-14.7v18.9h14.9v19h-14.9v18.9h14.8v18.9h-14.3v16.2h14.8v19h-14.9v18.9h14.8v18.9h-14.7v18.9h14.8v19h-14.8v18.9h14.8v18.9h-14.6v17.3h14.8v18.9h-14.8v19h14.8v18.9h-14.7v18.9h14.8v18.9h-14.9v19h14.8v18.9h-14.3v16.2h14.8v18.9h-14.9v18.9h14.9v19h-14.7v18.9h14.8v18.9h-14.9v18.9h14.8v19h-14.7v18.3h14.8v18.9h-14.9v18.9h14.8v19h-14.7v18.9h14.8v18.9h-14.8v18.9h14.8v19h-14.3v16.2h14.8v18.9h-14.9v18.9h14.8v19h-14.7z"/>
			</g>
		</g>
		<g id="&lt;Group&gt;">
			<g id="&lt;Group&gt;">
				<path id="&lt;Path&gt;" class="s0" d="m692.8 1142.6h15v18.9h-15v18.9h14.9v19h-15v-19h-15v-18.9h15v-18.9h-15v-18.9h14.9v-19h-15v-18.9h15v-18.9h-14.9v-18.9h14.5v-16.3h-15v-18.9h15v-18.9h-15v-18.9h14.9v-19h-15v-18.9h15.1v-18.9h-15v-18.9h14.9v-18.4h-15v-18.9h15v-18.9h-14.9v-18.9h14.8v-19h-15v-18.9h15.1v-18.9h-15v-18.9h14.5v-16.2h-15v-19h15.1v-18.9h-15v-18.9h14.9v-18.9h-15v-19h15v-18.9h-15v-18.9h14.8v-17.3h-15v-18.9h15v-19h-15v-18.9h14.9v-18.9h-15v-18.9h15v-19h-14.9v-18.9h14.5v-16.2h-15v-18.9h15v-19h-15v-18.9h14.9v-18.9h-15v-18.9h15.1v-19h-15v-18.9h14.9v-18.3h-15v-18.9h15v-19h-14.9v-18.9h14.8v-18.9h-15v-18.9h15.1v-19h-15v-18.9h14.5v-16.2h-15v-18.9h15.1v-18.9h-15v-19h14.9v-18.9h-15v-18.9h15v-18.9h-15v-19h15.1v19h15v18.9h-15.1v18.9h15v18.9h-14.8v19h14.9v18.9h-15v18.9h15v18.9h-14.5v16.2h15v19h-15.1v18.9h15v18.9h-14.9v18.9h15v19h-15v18.9h15v18.9h-15v18.3h15v19h-15v18.9h15v18.9h-14.9v18.9h15v19h-15v18.9h15v18.9h-14.6v16.2h15v19h-15v18.9h15v18.9h-14.9v18.9h15v19h-15v18.9h14.9v18.9h-14.7v17.3h15v18.9h-15.1v19h15v18.9h-14.8v18.9h14.9v18.9h-15v19h15v18.9h-14.5v16.2h15v18.9h-15.1v18.9h15v19h-14.9v18.9h15v18.9h-15v18.9h15v19h-15v18.3h15v18.9h-15v18.9h15v19h-14.9v18.9h15v18.9h-15v18.9h15v19h-14.6v16.2h15v18.9h-15v18.9h15v19h-14.9z"/>
			</g>
		</g>
		<g id="&lt;Group&gt;">
			<g id="&lt;Group&gt;">
				<path id="&lt;Path&gt;" class="s0" d="m722.9 1142.6h15v18.9h-15v18.9h15v19h-15.1v-19h-15v-18.9h15.1v-18.9h-15v-18.9h14.9v-19h-15v-18.9h15v-18.9h-15v-18.9h14.5v-16.3h-15v-18.9h15.1v-18.9h-15v-18.9h14.9v-19h-15v-18.9h15v-18.9h-15v-18.9h15v-18.4h-15v-18.9h15v-18.9h-15v-18.9h14.9v-19h-15v-18.9h15v-18.9h-15v-18.9h14.6v-16.2h-15v-19h15v-18.9h-15v-18.9h14.9v-18.9h-15v-19h15v-18.9h-14.9v-18.9h14.7v-17.3h-15v-18.9h15.1v-19h-15v-18.9h14.9v-18.9h-15v-18.9h15v-19h-15v-18.9h14.5v-16.2h-15v-18.9h15.1v-19h-15v-18.9h14.9v-18.9h-15v-18.9h15v-19h-15v-18.9h15v-18.3h-15v-18.9h15v-19h-15v-18.9h14.9v-18.9h-15v-18.9h15v-19h-15v-18.9h14.6v-16.2h-15v-18.9h15v-18.9h-15v-19h14.9v-18.9h-15v-18.9h15v-18.9h-14.9v-19h15v19h15v18.9h-15v18.9h15v18.9h-14.9v19h15v18.9h-15v18.9h14.9v18.9h-14.5v16.2h15v19h-15v18.9h15v18.9h-14.9v18.9h15v19h-15.1v18.9h15v18.9h-14.9v18.3h15v19h-15v18.9h14.9v18.9h-14.8v18.9h15v19h-15.1v18.9h15v18.9h-14.5v16.2h15v19h-15.1v18.9h15v18.9h-14.9v18.9h15v19h-15v18.9h15v18.9h-14.8v17.3h15v18.9h-15v19h15v18.9h-14.9v18.9h15v18.9h-15v19h14.9v18.9h-14.5v16.2h15v18.9h-15v18.9h15v19h-14.9v18.9h15v18.9h-15.1v18.9h15v19h-14.9v18.3h15v18.9h-15v18.9h14.9v19h-14.8v18.9h15v18.9h-15.1v18.9h15v19h-14.5v16.2h15v18.9h-15.1v18.9h15v19h-14.9z"/>
			</g>
		</g>
		<g id="&lt;Group&gt;">
			<g id="&lt;Group&gt;">
				<path id="&lt;Path&gt;" class="s0" d="m753.1 1142.6h14.7v18.9h-14.7v18.9h14.7v19h-15.1v-19h-14.7v-18.9h14.7v-18.9h-14.7v-18.9h14.6v-19h-14.7v-18.9h14.8v-18.9h-14.7v-18.9h14.2v-16.3h-14.7v-18.9h14.7v-18.9h-14.7v-18.9h14.6v-19h-14.7v-18.9h14.8v-18.9h-14.7v-18.9h14.6v-18.4h-14.7v-18.9h14.8v-18.9h-14.7v-18.9h14.6v-19h-14.7v-18.9h14.7v-18.9h-14.7v-18.9h14.2v-16.2h-14.7v-19h14.8v-18.9h-14.7v-18.9h14.6v-18.9h-14.7v-19h14.7v-18.9h-14.7v-18.9h14.5v-17.3h-14.7v-18.9h14.7v-19h-14.7v-18.9h14.6v-18.9h-14.7v-18.9h14.8v-19h-14.7v-18.9h14.2v-16.2h-14.7v-18.9h14.8v-19h-14.8v-18.9h14.6v-18.9h-14.7v-18.9h14.8v-19h-14.7v-18.9h14.6v-18.3h-14.7v-18.9h14.8v-19h-14.7v-18.9h14.6v-18.9h15v18.9h-14.6v18.9h14.7v19h-14.7v18.9h14.7v18.9h-14.6v18.3h14.7v19h-14.8v18.9h14.7v18.9h-14.6v18.9h14.7v19h-14.7v18.9h14.7v18.9h-14.3v16.2h14.7v19h-14.7v18.9h14.7v18.9h-14.6v18.9h14.7v19h-14.7v18.9h14.7v18.9h-14.5v17.3h14.7v18.9h-14.8v19h14.8v18.9h-14.6v18.9h14.7v18.9h-14.8v19h14.7v18.9h-14.2v16.2h14.7v18.9h-14.8v18.9h14.7v19h-14.6v18.9h14.7v18.9h-14.7v18.9h14.7v19h-14.6v18.3h14.7v18.9h-14.8v18.9h14.7v19h-14.6v18.9h14.7v18.9h-14.7v18.9h14.7v19h-14.3v16.2h14.7v18.9h-14.7v18.9h14.7v19h-14.6z"/>
			</g>
		</g>
		<g id="&lt;Group&gt;">
			<g id="&lt;Group&gt;">
				<path id="&lt;Path&gt;" class="s0" d="m602.4 1142.6h15.1v18.9h-14.9v18.4h-15v-18.9h14.8z"/>
			</g>
		</g>
		<g id="&lt;Group&gt;">
			<g id="&lt;Group&gt;">
				<path id="&lt;Path&gt;" class="s0" d="m602.4 1180.4h15.1v19h-15.1z"/>
			</g>
		</g>
		<g id="&lt;Group&gt;">
			<g id="&lt;Group&gt;">
				<path id="&lt;Path&gt;" class="s0" d="m903.3 1066.9h-15v-18.9h12.9v-15h15v19h-12.9z"/>
			</g>
		</g>
		<g id="&lt;Group&gt;">
			<g id="&lt;Group&gt;">
				<path id="&lt;Path&gt;" class="s0" d="m783 1142.6h15v18.9h-15.1v18.9h15v19h-15.1v-19h-14.9v-18.9h15v-18.9h-15v-18.9h14.9v-19h-15v-18.9h15v-18.9h-15v-18.9h14.6v-16.3h-15v-18.9h15v-18.9h-15v-18.9h14.9v-19h-15v-18.9h15v-18.9h-15v-18.9h15v-18.4h-15v-18.9h15v-18.9h-15v-18.9h14.9v-19h-15v-18.9h15.1v-18.9h-15v-18.9h14.5v-16.2h-15v-19h15v-18.9h-14.9v-18.9h14.8v-18.9h-15v-19h15.1v-18.9h-15v-18.9h14.7v-17.3h-14.9v-18.9h15v-19h-15v-18.9h14.9v-18.9h-15v-18.9h15v-19h-15v-18.9h14.6v-16.2h-15v-18.9h15v-19h-15v-18.9h14.9v-18.9h-15v-18.9h15v-19h-14.9v-18.9h14.9v-18.3h-15v-18.9h15v-19h-15v-18.9h14.9v-18.9h-15v-18.9h15.1v-19h-15v-18.9h14.5v-16.2h-15v-18.9h15v-18.9h-14.9v-19h14.8v-18.9h-15v-18.9h15.1v-18.9h-15v-19h15.1v19h15v18.9h-15.1v18.9h15v18.9h-14.9v19h15v18.9h-15v18.9h15v18.9h-14.6v16.2h15v19h-15v18.9h15v18.9h-14.9v18.9h15v19h-15v18.9h15v18.9h-15v18.3h15v19h-15v18.9h15v18.9h-14.9v18.9h15v19h-15.1v18.9h15v18.9h-14.5v16.2h15v19h-15v18.9h15v18.9h-14.9v18.9h15v19h-15.1v18.9h15v18.9h-14.7v17.3h14.9v18.9h-15v19h15v18.9h-14.9v18.9h15v18.9h-15v19h15v18.9h-14.6v16.2h15v18.9h-15v18.9h15v19h-14.9v18.9h15v18.9h-15v18.9h15v19h-15v18.3h15v18.9h-15v18.9h15v19h-14.9v18.9h15v18.9h-15.1v18.9h15v19h-14.5v16.2h15v18.9h-15v18.9h14.9v19h-14.8z"/>
			</g>
		</g>
		<g id="&lt;Group&gt;">
			<g id="&lt;Group&gt;">
				<path id="&lt;Path&gt;" class="s0" d="m813.1 1142.6h14.8v18.9h-14.8v18.9h14.8v19h-15.1v-19h-14.8v-18.9h14.9v-18.9h-14.9v-18.9h14.7v-19h-14.8v-18.9h14.9v-18.9h-14.8v-18.9h14.3v-16.3h-14.8v-18.9h14.9v-18.9h-14.8v-18.9h14.7v-19h-14.8v-18.9h14.8v-18.9h-14.8v-18.9h14.8v-18.4h-14.9v-18.9h14.9v-18.9h-14.8v-18.9h14.7v-19h-14.8v-18.9h14.8v-18.9h-14.8v-18.9h14.4v-16.2h-14.8v-19h14.8v-18.9h-14.8v-18.9h14.7v-18.9h-14.8v-19h14.8v-18.9h-14.8v-18.9h14.6v-17.3h-14.8v-18.9h14.9v-19h-14.9v-18.9h14.8v-18.9h-14.9v-18.9h14.9v-19h-14.8v-18.9h14.3v-16.2h-14.8v-18.9h14.9v-19h-14.8v-18.9h14.7v-18.9h-14.8v-18.9h14.8v-19h-14.8v-18.9h14.8v-18.3h-14.9v-18.9h14.9v-19h-14.8v-18.9h14.7v-18.9h-14.8v-18.9h14.8v-19h-14.8v-18.9h14.4v-16.2h-14.8v-18.9h14.8v-18.9h-14.8v-19h14.7v-18.9h-14.8v-18.9h14.8v-18.9h-14.8v-19h15.1v19h14.8v18.9h-14.8v18.9h14.8v18.9h-14.7v19h14.8v18.9h-14.9v18.9h14.8v18.9h-14.3v16.2h14.8v19h-14.8v18.9h14.8v18.9h-14.7v18.9h14.8v19h-14.9v18.9h14.8v18.9h-14.7v18.3h14.8v19h-14.9v18.9h14.8v18.9h-14.7v18.9h14.9v19h-14.9v18.9h14.8v18.9h-14.3v16.2h14.8v19h-14.9v18.9h14.8v18.9h-14.7v18.9h14.8v19h-14.8v18.9h14.8v18.9h-14.6v17.3h14.8v18.9h-14.8v19h14.8v18.9h-14.7v18.9h14.8v18.9h-14.9v19h14.8v18.9h-14.3v16.2h14.8v18.9h-14.8v18.9h14.8v19h-14.7v18.9h14.8v18.9h-14.9v18.9h14.8v19h-14.7v18.3h14.8v18.9h-14.9v18.9h14.8v19h-14.7v18.9h14.9v18.9h-14.9v18.9h14.8v19h-14.3v16.2h14.8v18.9h-14.9v18.9h14.8v19h-14.7z"/>
			</g>
		</g>
		<g id="&lt;Group&gt;">
			<g id="&lt;Group&gt;">
				<path id="&lt;Path&gt;" class="s0" d="m843.1 1142.6h15v18.9h-15v18.9h14.9v19h-15v-19h-15v-18.9h15v-18.9h-15v-18.9h14.9v-19h-15v-18.9h15v-18.9h-14.9v-18.9h14.5v-16.3h-15v-18.9h15v-18.9h-15v-18.9h14.9v-19h-15v-18.9h15.1v-18.9h-15v-18.9h14.9v-18.4h-15v-18.9h15v-18.9h-14.9v-18.9h14.8v-19h-14.9v-18.9h15v-18.9h-15v-18.9h14.5v-16.2h-15v-19h15.1v-18.9h-15v-18.9h14.9v-18.9h-15v-19h15v-18.9h-15v-18.9h14.8v-17.3h-15v-18.9h15v-19h-15v-18.9h14.9v-18.9h-15v-18.9h15v-19h-14.9v-18.9h14.5v-16.2h-15v-18.9h15v-19h-15v-18.9h14.9v-18.9h-15v-18.9h15.1v-19h-15v-18.9h14.9v-18.3h-15v-18.9h15v-19h-14.9v-18.9h14.8v-18.9h-14.9v-18.9h15v-19h-15v-18.9h14.5v-16.2h-15v-18.9h15.1v-18.9h-15v-19h14.9v-18.9h-15v-18.9h15v-18.9h-15v-19h15.1v19h15v18.9h-15.1v18.9h15v18.9h-14.8v19h14.9v18.9h-15v18.9h15v18.9h-14.5v16.2h15v19h-15.1v18.9h15v18.9h-14.9v18.9h15v19h-15v18.9h15v18.9h-14.9v18.3h14.9v19h-15v18.9h15v18.9h-14.9v18.9h15v19h-15v18.9h15v18.9h-14.6v16.2h15v19h-15v18.9h15v18.9h-14.9v18.9h15v19h-15v18.9h14.9v18.9h-14.7v17.3h15v18.9h-15.1v19h15v18.9h-14.8v18.9h14.9v18.9h-15v19h15v18.9h-14.5v16.2h15v18.9h-15.1v18.9h15v19h-14.9v18.9h15v18.9h-15v18.9h15v19h-14.9v18.3h14.9v18.9h-15v18.9h15v19h-14.9v18.9h15v18.9h-15v18.9h15v19h-14.6v16.2h15v18.9h-15v18.9h15v19h-14.9z"/>
			</g>
		</g>
		<g id="&lt;Group&gt;">
			<g id="&lt;Group&gt;">
				<path id="&lt;Path&gt;" class="s0" d="m873.3 1142.6h14.9v18.9h-15v18.9h15v19h-15.1v-19h-15v-18.9h15.1v-18.9h-15v-18.9h14.9v-19h-15v-18.9h15v-18.9h-15v-18.9h14.5v-16.3h-15v-18.9h15.1v-18.9h-15v-18.9h14.9v-19h-15v-18.9h15v-18.9h-15v-18.9h15v-18.4h-15v-18.9h15v-18.9h-15v-18.9h14.9v-19h-15v-18.9h15v-18.9h-15v-18.9h14.6v-16.2h-15v-19h15v-18.9h-15v-18.9h14.9v-18.9h-15v-19h15.1v-18.9h-15v-18.9h14.7v-17.3h-15v-18.9h15.1v-19h-15v-18.9h14.9v-18.9h-15v-18.9h15v-19h-15v-18.9h14.5v-16.2h-14.9v-18.9h15v-19h-15v-18.9h14.9v-18.9h-15v-18.9h15v-19h-15v-18.9h15v-18.3h-15v-18.9h15v-19h-15v-18.9h14.9v-18.9h-15v-18.9h15v-19h-15v-18.9h14.6v-16.2h-15v-18.9h15v-18.9h-15v-19h14.9v-18.9h-15v-18.9h15.1v-18.9h-15v-19h15v19h15v18.9h-15v18.9h15v18.9h-14.9v19h15v18.9h-15v18.9h15v18.9h-14.6v16.2h15v19h-15v18.9h15v18.9h-14.9v18.9h15v19h-15.1v18.9h15v18.9h-14.9v18.3h15v19h-15v18.9h14.9v18.9h-14.8v18.9h15v19h-15.1v18.9h15v18.9h-14.5v16.2h15v19h-15.1v18.9h15v18.9h-14.8v18.9h14.9v19h-15v18.9h15v18.9h-14.8v17.3h15v18.9h-15v19h15v18.9h-14.9v18.9h15v18.9h-15v19h15v18.9h-14.6v16.2h15v18.9h-15v18.9h15v19h-14.9v18.9h15v18.9h-15.1v18.9h15v19h-14.9v18.3h15v18.9h-15v18.9h14.9v19h-14.8v18.9h15v18.9h-15.1v18.9h15v19h-14.5v16.2h15v18.9h-15.1v18.9h15v19h-14.8z"/>
			</g>
		</g>
		<g id="&lt;Group&gt;">
			<g id="&lt;Group&gt;">
				<path id="&lt;Path&gt;" class="s0" d="m901.1 919.5h15.1v18.9h-13.4v17.6h-15.1v-18.9h13.4z"/>
			</g>
		</g>
		<g id="&lt;Group&gt;">
			<g id="&lt;Group&gt;">
				<path id="&lt;Path&gt;" class="s0" d="m901.2 995.2h15.1v18.9h-13.4v17.6h-15.1v-18.9h13.4z"/>
			</g>
		</g>
		<g id="&lt;Group&gt;">
			<g id="&lt;Group&gt;">
				<path id="&lt;Path&gt;" class="s0" d="m1187 900.6h15.1v18.9h-15.1z"/>
			</g>
		</g>
		<g id="&lt;Group&gt;">
			<g id="&lt;Group&gt;">
				<path id="&lt;Path&gt;" class="s0" d="m1202.1 957.3h-15.1v-18.9h15.1z"/>
			</g>
		</g>
		<g id="&lt;Group&gt;">
			<g id="&lt;Group&gt;">
				<path id="&lt;Path&gt;" class="s0" d="m1187.1 976.3h15.1v18.9h-15.1z"/>
			</g>
		</g>
		<g id="&lt;Group&gt;">
			<g id="&lt;Group&gt;">
				<path id="&lt;Path&gt;" class="s0" d="m1202.1 1033h-15v-18.9h15z"/>
			</g>
		</g>
		<g id="&lt;Group&gt;">
			<g id="&lt;Group&gt;">
				<path id="&lt;Path&gt;" class="s0" d="m916.7 1087.1h-13.4v17.6h-15.1v-18.9h13.4v-17.6h15.1z"/>
			</g>
		</g>
		<g id="&lt;Group&gt;">
			<g id="&lt;Group&gt;">
				<path id="&lt;Path&gt;" class="s0" d="m901.6 1106h15.1v19h-13.3v17.6h-15.1v-18.9h13.3z"/>
			</g>
		</g>
		<g id="&lt;Group&gt;">
			<g id="&lt;Group&gt;">
				<path id="&lt;Path&gt;" class="s0" d="m931.9 1143.9h15v18.9h-15v18.9h15v19h-15.1v-19h-15v-18.9h15v-18.9h-14.9v-18.9h14.8v-19h-15v-18.9h15.1v-18.9h-15v-18.9h14.5v-16.3h-15v-18.9h15.1v-18.9h-15v-18.9h14.8v-19h-14.9v-18.9h15v-18.9h-15v-18.9h14.9v-18.3h-15v-19h15.1v-18.9h-15v-18.9h14.9v-18.9h-15v-19h15v-18.9h-15v-18.9h14.5v-16.2h-14.9v-19h15v-18.9h-15v-18.9h14.9v-18.9h-15v-19h15v-18.9h-15v-18.9h14.8v-17.3h-15v-18.9h15v-19h-14.9v-18.9h14.8v-18.9h-15v-18.9h15.1v-19h-15v-18.9h14.5v-16.2h-15v-18.9h15.1v-19h-15v-18.9h14.8v-18.9h-14.9v-18.9h15v-19h-15v-18.9h14.9v-18.3h-15v-18.9h15.1v-18.9h-15v-19h14.9v-18.9h-15v-18.9h15v-18.9h-15v-19h14.6v-16.2h-15v-18.9h15v-18.9h-15v-19h14.9v-18.9h-15v-18.9h15v-18.9h-15v-19h15.1v19h15v18.9h-15v18.9h15v18.9h-14.9v19h15v18.9h-15.1v18.9h15v18.9h-14.5v16.3h15v18.9h-15v18.9h14.9v18.9h-14.8v19h15v18.9h-15.1v18.9h15v18.9h-14.9v18.3h15v19h-15.1v18.9h15v18.9h-14.9v18.9h15v19h-15v18.9h15v18.9h-14.5v16.2h14.9v19h-15v18.9h15v18.9h-14.9v18.9h15v19h-15v18.9h15v18.9h-14.8v17.3h15v18.9h-15v19h15v18.9h-14.9v18.9h15v18.9h-15.1v19h15v18.9h-14.5v16.2h15v18.9h-15v19h14.9v18.9h-14.8v18.9h15v18.9h-15.1v19h15v18.9h-14.9v18.3h15v18.9h-15.1v18.9h15v19h-14.9v18.9h15v18.9h-15v18.9h15v19h-14.5v16.2h14.9v18.9h-15v18.9h15v19h-14.9z"/>
			</g>
		</g>
		<g id="&lt;Group&gt;">
			<g id="&lt;Group&gt;">
				<path id="&lt;Path&gt;" class="s0" d="m962.1 1143.9h14.8v18.9h-14.9v18.9h14.8v19h-15v-19h-14.8v-18.9h14.8v-18.9h-14.8v-18.9h14.7v-19h-14.8v-18.9h14.8v-18.9h-14.8v-18.9h14.4v-16.3h-14.8v-18.9h14.8v-18.9h-14.8v-18.9h14.7v-19h-14.8v-18.9h14.9v-18.9h-14.8v-18.9h14.7v-18.3h-14.8v-19h14.8v-18.9h-14.8v-18.9h14.7v-18.9h-14.8v-19h14.9v-18.9h-14.8v-18.9h14.3v-16.2h-14.8v-19h14.9v-18.9h-14.8v-18.9h14.7v-18.9h-14.9v-19h14.9v-18.9h-14.8v-18.9h14.6v-17.3h-14.8v-18.9h14.8v-19h-14.8v-18.9h14.7v-18.9h-14.8v-18.9h14.8v-19h-14.8v-18.9h14.4v-16.2h-14.8v-18.9h14.8v-19h-14.8v-18.9h14.7v-18.9h-14.8v-18.9h14.9v-19h-14.8v-18.9h14.7v-18.3h-14.8v-18.9h14.9v-18.9h-14.9v-19h14.7v-18.9h-14.8v-18.9h14.9v-18.9h-14.8v-19h14.3v-16.2h-14.8v-18.9h14.9v-18.9h-14.8v-19h14.7v-18.9h-14.9v-18.9h14.9v-18.9h-14.8v-19h15.1v19h14.8v18.9h-14.9v18.9h14.8v18.9h-14.7v19h14.8v18.9h-14.8v18.9h14.8v18.9h-14.4v16.3h14.9v18.9h-14.9v18.9h14.8v18.9h-14.7v19h14.8v18.9h-14.8v18.9h14.8v18.9h-14.8v18.3h14.8v19h-14.8v18.9h14.8v18.9h-14.7v18.9h14.8v19h-14.8v18.9h14.8v18.9h-14.4v16.2h14.8v19h-14.8v18.9h14.8v18.9h-14.7v18.9h14.8v19h-14.9v18.9h14.8v18.9h-14.5v17.3h14.8v18.9h-14.9v19h14.8v18.9h-14.7v18.9h14.8v18.9h-14.8v19h14.8v18.9h-14.4v16.2h14.9v18.9h-14.9v19h14.8v18.9h-14.7v18.9h14.8v18.9h-14.8v19h14.8v18.9h-14.8v18.3h14.8v18.9h-14.8v18.9h14.8v19h-14.7v18.9h14.8v18.9h-14.8v18.9h14.8v19h-14.4v16.2h14.8v18.9h-14.8v18.9h14.8v19h-14.7z"/>
			</g>
		</g>
		<g id="&lt;Group&gt;">
			<g id="&lt;Group&gt;">
				<path id="&lt;Path&gt;" class="s0" d="m992.1 1143.9h14.9v18.9h-15v18.9h15v19h-15.1v-19h-15v-18.9h15.1v-18.9h-15v-18.9h14.9v-19h-15v-18.9h15v-18.9h-15v-18.9h14.5v-16.3h-14.9v-18.9h15v-18.9h-15v-18.9h14.9v-19h-15v-18.9h15v-18.9h-15v-18.9h15v-18.3h-15v-19h15v-18.9h-15v-18.9h14.9v-18.9h-15v-19h15v-18.9h-15v-18.9h14.6v-16.2h-15v-19h15v-18.9h-15v-18.9h14.9v-18.9h-15v-19h15.1v-18.9h-15v-18.9h14.7v-17.3h-15v-18.9h15.1v-19h-15v-18.9h14.9v-18.9h-15v-18.9h15v-19h-15v-18.9h14.5v-16.2h-14.9v-18.9h15v-19h-15v-18.9h14.9v-18.9h-15v-18.9h15v-19h-15v-18.9h15v-18.3h-15v-18.9h15v-18.9h-15v-19h14.9v-18.9h-15v-18.9h15v-18.9h-14.9v-19h14.5v-16.2h-15v-18.9h15v-18.9h-15v-19h14.9v-18.9h-15v-18.9h15.1v-18.9h-15v-19h15v19h15v18.9h-15v18.9h15v18.9h-14.9v19h15v18.9h-15v18.9h15v18.9h-14.6v16.3h15v18.9h-15v18.9h15v18.9h-14.9v19h15v18.9h-15.1v18.9h15v18.9h-14.9v18.3h15v19h-15v18.9h15v18.9h-14.9v18.9h15v19h-15.1v18.9h15v18.9h-14.5v16.2h15v19h-15.1v18.9h15v18.9h-14.8v18.9h14.9v19h-15v18.9h15v18.9h-14.8v17.3h15v18.9h-15v19h15v18.9h-14.9v18.9h15v18.9h-15v19h15v18.9h-14.6v16.2h15v18.9h-15v19h15v18.9h-14.9v18.9h15v18.9h-15.1v19h15v18.9h-14.9v18.3h15v18.9h-15v18.9h14.9v19h-14.8v18.9h15v18.9h-15.1v18.9h15v19h-14.5v16.2h15v18.9h-15.1v18.9h15v19h-14.8z"/>
			</g>
		</g>
		<g id="&lt;Group&gt;">
			<g id="&lt;Group&gt;">
				<path id="&lt;Path&gt;" class="s0" d="m1022.2 1143.9h15v18.9h-15v18.9h14.9v19h-15v-19h-15v-18.9h15v-18.9h-15v-18.9h14.9v-19h-15v-18.9h15.1v-18.9h-15v-18.9h14.5v-16.3h-15v-18.9h15v-18.9h-15v-18.9h14.9v-19h-15v-18.9h15.1v-18.9h-15v-18.9h14.9v-18.3h-15v-19h15.1v-18.9h-15v-18.9h14.8v-18.9h-14.9v-19h15v-18.9h-15v-18.9h14.5v-16.2h-15v-19h15.1v-18.9h-15v-18.9h14.9v-18.9h-15v-19h15v-18.9h-15v-18.9h14.8v-17.3h-15v-18.9h15v-19h-15v-18.9h14.9v-18.9h-15v-18.9h15.1v-19h-15v-18.9h14.5v-16.2h-15v-18.9h15v-19h-15v-18.9h14.9v-18.9h-15v-18.9h15.1v-19h-15v-18.9h14.9v-18.3h-15v-18.9h15.1v-18.9h-15v-19h14.8v-18.9h-14.9v-18.9h15v-18.9h-15v-19h14.5v-16.2h-15v-18.9h15.1v-18.9h-15v-19h14.9v-18.9h-15v-18.9h15v-18.9h-15v-19h15.1v19h15v18.9h-15v18.9h14.9v18.9h-14.8v19h15v18.9h-15.1v18.9h15v18.9h-14.5v16.3h15v18.9h-15.1v18.9h15v18.9h-14.9v19h15v18.9h-15v18.9h15v18.9h-14.9v18.3h14.9v19h-15v18.9h15v18.9h-14.9v18.9h15v19h-15v18.9h15v18.9h-14.6v16.2h15v19h-15v18.9h15v18.9h-14.9v18.9h15v19h-15v18.9h15v18.9h-14.8v17.3h15v18.9h-15.1v19h15v18.9h-14.8v18.9h14.9v18.9h-15v19h15v18.9h-14.5v16.2h15v18.9h-15.1v19h15v18.9h-14.9v18.9h15v18.9h-15v19h15v18.9h-14.9v18.3h14.9v18.9h-15v18.9h15v19h-14.9v18.9h15v18.9h-15v18.9h15v19h-14.6v16.2h15v18.9h-15v18.9h15v19h-14.9z"/>
			</g>
		</g>
		<g id="&lt;Group&gt;">
			<g id="&lt;Group&gt;">
				<path id="&lt;Path&gt;" class="s0" d="m1052.4 1143.9h14.7v18.9h-14.8v18.9h14.7v19h-15.1v-19h-14.7v-18.9h14.8v-18.9h-14.7v-18.9h14.6v-19h-14.7v-18.9h14.7v-18.9h-14.7v-18.9h14.3v-16.3h-14.7v-18.9h14.7v-18.9h-14.7v-18.9h14.6v-19h-14.7v-18.9h14.7v-18.9h-14.7v-18.9h14.7v-18.3h-14.7v-19h14.7v-18.9h-14.7v-18.9h14.6v-18.9h-14.7v-19h14.8v-18.9h-14.8v-18.9h14.3v-16.2h-14.7v-19h14.7v-18.9h-14.7v-18.9h14.6v-18.9h-14.7v-19h14.8v-18.9h-14.7v-18.9h14.4v-17.3h-14.7v-18.9h14.8v-19h-14.7v-18.9h14.6v-18.9h-14.7v-18.9h14.7v-19h-14.7v-18.9h14.3v-16.2h-14.7v-18.9h14.7v-19h-14.7v-18.9h14.6v-18.9h-14.7v-18.9h14.7v-19h-14.7v-18.9h14.7v-18.3h-14.7v-18.9h14.7v-18.9h-14.7v-19h14.6v-18.9h15.1v18.9h-14.6v19h14.7v18.9h-14.7v18.9h14.7v18.9h-14.7v18.3h14.7v19h-14.7v18.9h14.7v18.9h-14.6v18.9h14.7v19h-14.8v18.9h14.7v18.9h-14.2v16.2h14.7v19h-14.8v18.9h14.8v18.9h-14.6v18.9h14.7v19h-14.8v18.9h14.7v18.9h-14.5v17.3h14.8v18.9h-14.8v19h14.7v18.9h-14.6v18.9h14.7v18.9h-14.7v19h14.7v18.9h-14.3v16.2h14.7v18.9h-14.7v19h14.7v18.9h-14.6v18.9h14.7v18.9h-14.8v19h14.8v18.9h-14.7v18.3h14.7v18.9h-14.7v18.9h14.7v19h-14.6v18.9h14.7v18.9h-14.8v18.9h14.7v19h-14.2v16.2h14.7v18.9h-14.8v18.9h14.8v19h-14.6z"/>
			</g>
		</g>
		<g id="&lt;Group&gt;">
			<g id="&lt;Group&gt;">
				<path id="&lt;Path&gt;" class="s0" d="m901.7 1143.9h15.1v18.9h-13.4v17.6h-15.1v-18.9h13.4z"/>
			</g>
		</g>
		<g id="&lt;Group&gt;">
			<g id="&lt;Group&gt;">
				<path id="&lt;Path&gt;" class="s0" d="m901.6 1181.7h15.1v19h-15.1z"/>
			</g>
		</g>
		<g id="&lt;Group&gt;">
			<g id="&lt;Group&gt;">
				<path id="&lt;Path&gt;" class="s0" d="m1202.6 1068.2h-15.1v-18.9h15.1z"/>
			</g>
		</g>
		<g id="&lt;Group&gt;">
			<g id="&lt;Group&gt;">
				<path id="&lt;Path&gt;" class="s0" d="m1202.5 1106h-15v-18.9h15z"/>
			</g>
		</g>
		<g id="&lt;Group&gt;">
			<g id="&lt;Group&gt;">
				<path id="&lt;Path&gt;" class="s0" d="m1082.2 1143.9h15v18.9h-15v18.9h15v19h-15.1v-19h-15v-18.9h15v-18.9h-14.9v-18.9h14.8v-19h-15v-18.9h15.1v-18.9h-15v-18.9h14.5v-16.3h-15v-18.9h15.1v-18.9h-15v-18.9h14.8v-19h-14.9v-18.9h15v-18.9h-15v-18.9h14.9v-18.3h-15v-19h15.1v-18.9h-15v-18.9h14.9v-18.9h-15v-19h15v-18.9h-15v-18.9h14.6v-16.2h-15v-19h15v-18.9h-15v-18.9h14.9v-18.9h-15v-19h15v-18.9h-15v-18.9h14.8v-17.3h-15v-18.9h15v-19h-14.9v-18.9h14.8v-18.9h-15v-18.9h15.1v-19h-15v-18.9h14.5v-16.2h-15v-18.9h15.1v-19h-15v-18.9h14.9v-18.9h-15v-18.9h15v-19h-15v-18.9h14.9v-18.3h-15v-18.9h15.1v-18.9h-15v-19h14.9v-18.9h-15v-18.9h15v-18.9h-15v-19h14.6v-16.2h-15v-18.9h15v-18.9h-15v-19h14.9v-18.9h-15v-18.9h15v-18.9h-15v-19h15.1v19h15v18.9h-15v18.9h15v18.9h-14.9v19h15v18.9h-15.1v18.9h15v18.9h-14.5v16.3h15v18.9h-15v18.9h14.9v18.9h-14.8v19h15v18.9h-15.1v18.9h15v18.9h-14.9v18.3h15v19h-15.1v18.9h15v18.9h-14.9v18.9h15v19h-15v18.9h15v18.9h-14.5v16.2h15v19h-15.1v18.9h15v18.9h-14.9v18.9h15v19h-15v18.9h15v18.9h-14.8v17.3h15v18.9h-15v19h15v18.9h-14.9v18.9h15v18.9h-15.1v19h15v18.9h-14.5v16.2h15v18.9h-15v19h14.9v18.9h-14.8v18.9h15v18.9h-15.1v19h15v18.9h-14.9v18.3h15v18.9h-15.1v18.9h15v19h-14.9v18.9h15v18.9h-15v18.9h15v19h-14.5v16.2h15v18.9h-15.1v18.9h15v19h-14.9z"/>
			</g>
		</g>
		<g id="&lt;Group&gt;">
			<g id="&lt;Group&gt;">
				<path id="&lt;Path&gt;" class="s0" d="m1112.4 1143.9h14.8v18.9h-14.9v18.9h14.8v19h-15v-19h-14.8v-18.9h14.8v-18.9h-14.8v-18.9h14.7v-19h-14.8v-18.9h14.9v-18.9h-14.9v-18.9h14.4v-16.3h-14.8v-18.9h14.8v-18.9h-14.8v-18.9h14.7v-19h-14.8v-18.9h14.9v-18.9h-14.8v-18.9h14.7v-18.3h-14.8v-19h14.9v-18.9h-14.9v-18.9h14.7v-18.9h-14.8v-19h14.9v-18.9h-14.8v-18.9h14.3v-16.2h-14.8v-19h14.9v-18.9h-14.8v-18.9h14.7v-18.9h-14.8v-19h14.8v-18.9h-14.8v-18.9h14.6v-17.3h-14.8v-18.9h14.8v-19h-14.8v-18.9h14.7v-18.9h-14.8v-18.9h14.9v-19h-14.9v-18.9h14.4v-16.2h-14.8v-18.9h14.8v-19h-14.8v-18.9h14.7v-18.9h-14.8v-18.9h14.9v-19h-14.8v-18.9h14.7v-18.3h-14.8v-18.9h14.9v-18.9h-14.9v-19h14.7v-18.9h-14.8v-18.9h14.9v-18.9h-14.8v-19h14.3v-16.2h-14.8v-18.9h14.9v-18.9h-14.8v-19h14.7v-18.9h-14.8v-18.9h14.8v-18.9h-14.8v-19h15.1v19h14.8v18.9h-14.9v18.9h14.8v18.9h-14.7v19h14.8v18.9h-14.8v18.9h14.8v18.9h-14.3v16.3h14.8v18.9h-14.9v18.9h14.8v18.9h-14.7v19h14.8v18.9h-14.8v18.9h14.8v18.9h-14.8v18.3h14.8v19h-14.8v18.9h14.8v18.9h-14.7v18.9h14.8v19h-14.8v18.9h14.8v18.9h-14.4v16.2h14.8v19h-14.8v18.9h14.8v18.9h-14.7v18.9h14.8v19h-14.9v18.9h14.8v18.9h-14.5v17.3h14.8v18.9h-14.9v19h14.8v18.9h-14.7v18.9h14.8v18.9h-14.8v19h14.8v18.9h-14.4v16.2h14.9v18.9h-14.9v19h14.8v18.9h-14.7v18.9h14.8v18.9h-14.8v19h14.8v18.9h-14.8v18.3h14.8v18.9h-14.8v18.9h14.8v19h-14.7v18.9h14.8v18.9h-14.8v18.9h14.8v19h-14.4v16.2h14.8v18.9h-14.8v18.9h14.8v19h-14.7z"/>
			</g>
		</g>
		<g id="&lt;Group&gt;">
			<g id="&lt;Group&gt;">
				<path id="&lt;Path&gt;" class="s0" d="m1142.4 1143.9h14.9v18.9h-15v18.9h15v19h-15.1v-19h-15v-18.9h15.1v-18.9h-15v-18.9h14.9v-19h-15v-18.9h15v-18.9h-15v-18.9h14.5v-16.3h-14.9v-18.9h15v-18.9h-15v-18.9h14.9v-19h-15v-18.9h15v-18.9h-15v-18.9h15v-18.3h-15v-19h15v-18.9h-15v-18.9h14.9v-18.9h-15v-19h15v-18.9h-14.9v-18.9h14.5v-16.2h-15v-19h15v-18.9h-15v-18.9h14.9v-18.9h-15v-19h15.1v-18.9h-15v-18.9h14.7v-17.3h-15v-18.9h15.1v-19h-15v-18.9h14.9v-18.9h-15v-18.9h15v-19h-15v-18.9h14.5v-16.2h-14.9v-18.9h15v-19h-15v-18.9h14.9v-18.9h-15v-18.9h15v-19h-15v-18.9h15v-18.3h-15v-18.9h15v-18.9h-15v-19h14.9v-18.9h-15v-18.9h15v-18.9h-14.9v-19h14.5v-16.2h-15v-18.9h15v-18.9h-15v-19h14.9v-18.9h-15v-18.9h15.1v-18.9h-15v-19h15v19h15v18.9h-15v18.9h15v18.9h-14.9v19h15v18.9h-15v18.9h15v18.9h-14.6v16.3h15v18.9h-15v18.9h15v18.9h-14.9v19h15v18.9h-15v18.9h14.9v18.9h-14.9v18.3h15v19h-15v18.9h15v18.9h-14.9v18.9h15v19h-15.1v18.9h15v18.9h-14.5v16.2h15v19h-15.1v18.9h15v18.9h-14.8v18.9h14.9v19h-15v18.9h15v18.9h-14.8v17.3h15v18.9h-15v19h15v18.9h-14.9v18.9h15v18.9h-15v19h15v18.9h-14.6v16.2h15v18.9h-15v19h15v18.9h-14.9v18.9h15v18.9h-15.1v19h15v18.9h-14.9v18.3h15v18.9h-15v18.9h15v19h-14.9v18.9h15v18.9h-15.1v18.9h15v19h-14.5v16.2h15v18.9h-15.1v18.9h15v19h-14.8z"/>
			</g>
		</g>
		<g id="&lt;Group&gt;">
			<g id="&lt;Group&gt;">
				<path id="&lt;Path&gt;" class="s0" d="m1172.5 1143.9h15v18.9h-15v18.9h15v19h-15.1v-19h-15v-18.9h15v-18.9h-15v-18.9h14.9v-19h-15v-18.9h15.1v-18.9h-15v-18.9h14.5v-16.3h-15v-18.9h15v-18.9h-15v-18.9h14.9v-19h-15v-18.9h15.1v-18.9h-15v-18.9h14.9v-18.3h-15v-19h15.1v-18.9h-15v-18.9h14.8v-18.9h-14.9v-19h15v-18.9h-15v-18.9h14.5v-16.2h-15v-19h15.1v-18.9h-15v-18.9h14.9v-18.9h-15v-19h15v-18.9h-15v-18.9h14.8v-17.3h-15v-18.9h15v-19h-15v-18.9h14.9v-18.9h-15v-18.9h15.1v-19h-15v-18.9h14.5v-16.2h-15v-18.9h15v-19h-14.9v-18.9h14.8v-18.9h-15v-18.9h15.1v-19h-15v-18.9h14.9v-18.3h-15v-18.9h15.1v-18.9h-15v-19h14.8v-18.9h-14.9v-18.9h15v-18.9h-15v-19h14.5v-16.2h-15v-18.9h15.1v-18.9h-15v-19h14.9v-18.9h-15v-18.9h15v-18.9h-15v-19h15.1v19h15v18.9h-15v18.9h14.9v18.9h-14.8v19h15v18.9h-15.1v18.9h15v18.9h-14.5v16.3h15v18.9h-15.1v18.9h15v18.9h-14.9v19h15v18.9h-15v18.9h15v18.9h-14.9v18.3h15v19h-15.1v18.9h15v18.9h-14.9v18.9h15v19h-15v18.9h15v18.9h-14.6v16.2h15v19h-15v18.9h15v18.9h-14.9v18.9h15v19h-15v18.9h15v18.9h-14.8v17.3h15v18.9h-15v19h14.9v18.9h-14.8v18.9h15v18.9h-15.1v19h15v18.9h-14.5v16.2h15v18.9h-15.1v19h15v18.9h-14.9v18.9h15v18.9h-15v19h15v18.9h-14.9v18.3h14.9v18.9h-15v18.9h15v19h-14.9v18.9h15v18.9h-15v18.9h15v19h-14.6v16.2h15v18.9h-15v18.9h15v19h-14.9z"/>
			</g>
		</g>
		<g id="&lt;Group&gt;">
			<g id="&lt;Group&gt;">
				<path id="&lt;Path&gt;" class="s0" d="m1202.7 1125v18.9h-15.1v-18.9z"/>
			</g>
		</g>
		<g id="&lt;Group&gt;">
			<g id="&lt;Group&gt;">
				<path id="&lt;Path&gt;" class="s0" d="m1187.5 1162.8h15.1v18.9h-15.1z"/>
			</g>
		</g>
	</g>
	<g id="Layer 2">
		<g id="&lt;Group&gt;">
			<path id="&lt;Path&gt;" class="s1" d="m1029.2 238.6v632.9c0 44.6-32.5 81.9-74.8 89v-617c0-64.2-51.7-116.4-115.4-116.4h-556.7c5.7-44.2 43.4-78.7 88.7-78.7h568.8c49.2 0 89.4 40.6 89.4 90.2z"/>
			<path id="&lt;Compound Path&gt;" fill-rule="evenodd" class="s1" d="m918.7 355.4v632.9c0 49.6-40.3 90.2-89.4 90.2h-568.9c-49.1 0-89.3-40.6-89.3-90.2v-632.9c0-49.6 40.2-90.2 89.3-90.2h568.9c49.1 0 89.4 40.6 89.4 90.2zm-183.1 9.4c0 23 17.9 40 53.1 50.4 18.9 5.7 28.4 13.3 28.4 22.8 0 5.6-2.2 9.7-6.8 13.1-5.3 3.7-13 5.6-22.8 5.6-13.9 0-27.1-4.2-39-12.5l-6.1-4.3-15.5 30.4 5.4 3.1c16.5 9.7 34.6 14.7 53.8 14.7 18.3 0 33.9-4.6 46.3-13.6 13.1-9.4 19.8-22 19.8-37.4 0-13.4-4.4-24.3-13.1-32.6-8.2-7.8-21.4-14.4-40.5-20.1-12.9-3.9-28.3-10.7-28.3-21.2 0-2.3 0.6-5.9 6.2-9.7 5-3.4 11.8-5.1 20.3-5.1 9.8 0 20.1 2.4 30.7 7.4l5.3 2.4 15.6-26.8-5.7-3.3c-12.9-7.4-28.2-11.1-45.6-11.1-17.6 0-32.3 4.4-43.6 13-11.9 9.1-17.9 20.8-17.9 34.8zm-329.7 120.4h110.4v-30.4h-75.7v-41.2h67.5v-30.4h-67.5v-32.9h75.7v-3.5l41.3 138.4h29.5l36.6-110.3 36.6 110.3h29.5l49.3-165.3h-37.5l-27.7 105.3-35.2-105.3h-30l-35.2 105.3-27.7-105.3h-139.9zm-162.4 0h34.7v-109.2l75.8 109.2h30.5v-165.3h-34.7v106.2l-74.8-106.2h-31.5zm610.2 473.6c0-20.7-16.9-37.7-37.4-37.7h-549.4c-20.5 0-37.3 17-37.3 37.7 0 20.8 16.8 37.7 37.3 37.7h549.4c20.5 0 37.4-16.9 37.4-37.7zm0-131.2c0-20.7-16.9-37.7-37.4-37.7h-549.4c-20.5 0-37.3 17-37.3 37.7 0 20.8 16.8 37.8 37.3 37.8h549.4c20.5 0 37.4-17 37.4-37.8zm0-131.1c0-20.8-16.9-37.8-37.4-37.8h-549.4c-20.5 0-37.3 17-37.3 37.8 0 20.7 16.8 37.7 37.3 37.7h549.4c20.5 0 37.4-17 37.4-37.7zm0-131.2c0-20.8-16.9-37.7-37.4-37.7h-549.4c-20.5 0-37.3 16.9-37.3 37.7 0 20.7 16.8 37.7 37.3 37.7h549.4c20.5 0 37.4-17 37.4-37.7z"/>
		</g>
	</g>
</svg>